# Object Export From Tinkercad Server 2015

mtllib obj.mtl

o obj_0
v -6.1422 		-26.9283 		17
v -7.5 		-26.992 		17
v -7.5 		-12.492 		17
v -4.7963 		-26.7377 		17
v -3.4742 		-26.422 		17
v -2.1875 		-25.9838 		17
v -0.9474 		-25.427 		17
v 0.235 		-24.7566 		17
v 1.3495 		-23.9784 		17
v 2.3862 		-23.0992 		17
v 3.336 		-22.1269 		17
v 4.1907 		-21.0698 		17
v 4.9425 		-19.9374 		17
v 5.585 		-18.7396 		17
v 6.1126 		-17.4868 		17
v 6.5205 		-16.1902 		17
v 6.8052 		-14.861 		17
v 6.9641 		-13.511 		17
v 6.996 		-12.1521 		17
v 6.9005 		-10.7962 		17
v 6.6784 		-9.4551 		17
v 6.3317 		-8.1408 		17
v 5.8635 		-6.8647 		17
v 5.2778 		-5.638 		17
v 4.5799 		-4.4716 		17
v 3.7757 		-3.3757 		17
v 2.8725 		-2.3599 		17
v 1.8782 		-1.4331 		17
v 0.8014 		-0.6035 		17
v -0.3484 		0.1216 		17
v -1.5609 		0.7359 		17
v -2.8257 		1.2339 		17
v -4.1316 		1.6113 		17
v -5.467 		1.8647 		17
v -6.8204 		1.992 		17
v -8.1796 		1.992 		17
v -9.533 		1.8647 		17
v -10.8684 		1.6113 		17
v -12.1743 		1.2339 		17
v -13.4391 		0.7359 		17
v -14.6516 		0.1216 		17
v -15.8014 		-0.6035 		17
v -16.8782 		-1.4331 		17
v -17.8725 		-2.3599 		17
v -18.7757 		-3.3757 		17
v -19.5799 		-4.4716 		17
v -20.2778 		-5.638 		17
v -20.8635 		-6.8647 		17
v -21.3317 		-8.1408 		17
v -21.6784 		-9.4551 		17
v -21.9005 		-10.7962 		17
v -21.996 		-12.1521 		17
v -21.9641 		-13.511 		17
v -21.8052 		-14.861 		17
v -21.5205 		-16.1902 		17
v -21.1126 		-17.4868 		17
v -20.585 		-18.7396 		17
v -19.9425 		-19.9374 		17
v -19.1907 		-21.0698 		17
v -18.336 		-22.1269 		17
v -17.3862 		-23.0992 		17
v -16.3495 		-23.9784 		17
v -15.235 		-24.7566 		17
v -14.0526 		-25.427 		17
v -12.8125 		-25.9838 		17
v -11.5258 		-26.422 		17
v -10.2037 		-26.7377 		17
v -8.8578 		-26.9283 		17
v -7.5 		-26.992 		53
v -6.1422 		-26.9283 		53
v -7.5 		-12.492 		53
v -4.7963 		-26.7377 		53
v -3.4742 		-26.422 		53
v -2.1875 		-25.9838 		53
v -0.9474 		-25.427 		53
v 0.235 		-24.7566 		53
v 1.3495 		-23.9784 		53
v 2.3862 		-23.0992 		53
v 3.336 		-22.1269 		53
v 4.1907 		-21.0698 		53
v 4.9425 		-19.9374 		53
v 5.585 		-18.7396 		53
v 6.1126 		-17.4868 		53
v 6.5205 		-16.1902 		53
v 6.8052 		-14.861 		53
v 6.9641 		-13.511 		53
v 6.996 		-12.1521 		53
v 6.9005 		-10.7962 		53
v 6.6784 		-9.4551 		53
v 6.3317 		-8.1408 		53
v 5.8635 		-6.8647 		53
v 5.2778 		-5.638 		53
v 4.5799 		-4.4716 		53
v 3.7757 		-3.3757 		53
v 2.8725 		-2.3599 		53
v 1.8782 		-1.4331 		53
v 0.8014 		-0.6035 		53
v -0.3484 		0.1216 		53
v -1.5609 		0.7359 		53
v -2.8257 		1.2339 		53
v -4.1316 		1.6113 		53
v -5.467 		1.8647 		53
v -6.8204 		1.992 		53
v -8.1796 		1.992 		53
v -9.533 		1.8647 		53
v -10.8684 		1.6113 		53
v -12.1743 		1.2339 		53
v -13.4391 		0.7359 		53
v -14.6516 		0.1216 		53
v -15.8014 		-0.6035 		53
v -16.8782 		-1.4331 		53
v -17.8725 		-2.3599 		53
v -18.7757 		-3.3757 		53
v -19.5799 		-4.4716 		53
v -20.2778 		-5.638 		53
v -20.8635 		-6.8647 		53
v -21.3317 		-8.1408 		53
v -21.6784 		-9.4551 		53
v -21.9005 		-10.7962 		53
v -21.996 		-12.1521 		53
v -21.9641 		-13.511 		53
v -21.8052 		-14.861 		53
v -21.5205 		-16.1902 		53
v -21.1126 		-17.4868 		53
v -20.585 		-18.7396 		53
v -19.9425 		-19.9374 		53
v -19.1907 		-21.0698 		53
v -18.336 		-22.1269 		53
v -17.3862 		-23.0992 		53
v -16.3495 		-23.9784 		53
v -15.235 		-24.7566 		53
v -14.0526 		-25.427 		53
v -12.8125 		-25.9838 		53
v -11.5258 		-26.422 		53
v -10.2037 		-26.7377 		53
v -8.8578 		-26.9283 		53
# 136 vertices

g group_0_16448250

usemtl color_16448250
s 0

f 1 	2 	3
f 4 	1 	3
f 5 	4 	3
f 6 	5 	3
f 7 	6 	3
f 8 	7 	3
f 9 	8 	3
f 10 	9 	3
f 11 	10 	3
f 12 	11 	3
f 13 	12 	3
f 14 	13 	3
f 15 	14 	3
f 16 	15 	3
f 17 	16 	3
f 18 	17 	3
f 19 	18 	3
f 20 	19 	3
f 21 	20 	3
f 22 	21 	3
f 23 	22 	3
f 24 	23 	3
f 25 	24 	3
f 26 	25 	3
f 27 	26 	3
f 28 	27 	3
f 29 	28 	3
f 30 	29 	3
f 31 	30 	3
f 32 	31 	3
f 33 	32 	3
f 34 	33 	3
f 35 	34 	3
f 36 	35 	3
f 37 	36 	3
f 38 	37 	3
f 39 	38 	3
f 40 	39 	3
f 41 	40 	3
f 42 	41 	3
f 43 	42 	3
f 44 	43 	3
f 45 	44 	3
f 46 	45 	3
f 47 	46 	3
f 48 	47 	3
f 49 	48 	3
f 50 	49 	3
f 51 	50 	3
f 52 	51 	3
f 53 	52 	3
f 54 	53 	3
f 55 	54 	3
f 56 	55 	3
f 57 	56 	3
f 58 	57 	3
f 59 	58 	3
f 60 	59 	3
f 61 	60 	3
f 62 	61 	3
f 63 	62 	3
f 64 	63 	3
f 65 	64 	3
f 66 	65 	3
f 67 	66 	3
f 68 	67 	3
f 2 	68 	3
f 69 	70 	71
f 70 	72 	71
f 72 	73 	71
f 73 	74 	71
f 74 	75 	71
f 75 	76 	71
f 76 	77 	71
f 77 	78 	71
f 78 	79 	71
f 79 	80 	71
f 80 	81 	71
f 81 	82 	71
f 82 	83 	71
f 83 	84 	71
f 84 	85 	71
f 85 	86 	71
f 86 	87 	71
f 87 	88 	71
f 88 	89 	71
f 89 	90 	71
f 90 	91 	71
f 91 	92 	71
f 92 	93 	71
f 93 	94 	71
f 94 	95 	71
f 95 	96 	71
f 96 	97 	71
f 97 	98 	71
f 98 	99 	71
f 99 	100 	71
f 100 	101 	71
f 101 	102 	71
f 102 	103 	71
f 103 	104 	71
f 104 	105 	71
f 105 	106 	71
f 106 	107 	71
f 107 	108 	71
f 108 	109 	71
f 109 	110 	71
f 110 	111 	71
f 111 	112 	71
f 112 	113 	71
f 113 	114 	71
f 114 	115 	71
f 115 	116 	71
f 116 	117 	71
f 117 	118 	71
f 118 	119 	71
f 119 	120 	71
f 120 	121 	71
f 121 	122 	71
f 122 	123 	71
f 123 	124 	71
f 124 	125 	71
f 125 	126 	71
f 126 	127 	71
f 127 	128 	71
f 128 	129 	71
f 129 	130 	71
f 130 	131 	71
f 131 	132 	71
f 132 	133 	71
f 133 	134 	71
f 134 	135 	71
f 135 	136 	71
f 136 	69 	71
f 2 	1 	1
f 1 	4 	4
f 4 	5 	5
f 5 	6 	6
f 6 	7 	7
f 7 	8 	8
f 8 	9 	9
f 9 	10 	10
f 10 	11 	11
f 11 	12 	12
f 12 	13 	13
f 13 	14 	14
f 14 	15 	15
f 15 	16 	16
f 16 	17 	17
f 17 	18 	18
f 18 	19 	19
f 19 	20 	20
f 20 	21 	21
f 21 	22 	22
f 22 	23 	23
f 23 	24 	24
f 24 	25 	25
f 25 	26 	26
f 26 	27 	27
f 27 	28 	28
f 28 	29 	29
f 29 	30 	30
f 30 	31 	31
f 31 	32 	32
f 32 	33 	33
f 33 	34 	34
f 34 	35 	35
f 35 	36 	36
f 36 	37 	37
f 37 	38 	38
f 38 	39 	39
f 39 	40 	40
f 40 	41 	41
f 41 	42 	42
f 42 	43 	43
f 43 	44 	44
f 44 	45 	45
f 45 	46 	46
f 46 	47 	47
f 47 	48 	48
f 48 	49 	49
f 49 	50 	50
f 50 	51 	51
f 51 	52 	52
f 52 	53 	53
f 53 	54 	54
f 54 	55 	55
f 55 	56 	56
f 56 	57 	57
f 57 	58 	58
f 58 	59 	59
f 59 	60 	60
f 60 	61 	61
f 61 	62 	62
f 62 	63 	63
f 63 	64 	64
f 64 	65 	65
f 65 	66 	66
f 66 	67 	67
f 67 	68 	68
f 68 	2 	2
f 2 	1 	1
f 1 	4 	4
f 4 	5 	5
f 5 	6 	6
f 6 	7 	7
f 7 	8 	8
f 8 	9 	9
f 9 	10 	10
f 10 	11 	11
f 11 	12 	12
f 12 	13 	13
f 13 	14 	14
f 14 	15 	15
f 15 	16 	16
f 16 	17 	17
f 17 	18 	18
f 18 	19 	19
f 19 	20 	20
f 20 	21 	21
f 21 	22 	22
f 22 	23 	23
f 23 	24 	24
f 24 	25 	25
f 25 	26 	26
f 26 	27 	27
f 27 	28 	28
f 28 	29 	29
f 29 	30 	30
f 30 	31 	31
f 31 	32 	32
f 32 	33 	33
f 33 	34 	34
f 34 	35 	35
f 35 	36 	36
f 36 	37 	37
f 37 	38 	38
f 38 	39 	39
f 39 	40 	40
f 40 	41 	41
f 41 	42 	42
f 42 	43 	43
f 43 	44 	44
f 44 	45 	45
f 45 	46 	46
f 46 	47 	47
f 47 	48 	48
f 48 	49 	49
f 49 	50 	50
f 50 	51 	51
f 51 	52 	52
f 52 	53 	53
f 53 	54 	54
f 54 	55 	55
f 55 	56 	56
f 56 	57 	57
f 57 	58 	58
f 58 	59 	59
f 59 	60 	60
f 60 	61 	61
f 61 	62 	62
f 62 	63 	63
f 63 	64 	64
f 64 	65 	65
f 65 	66 	66
f 66 	67 	67
f 67 	68 	68
f 68 	2 	2
f 2 	1 	1
f 1 	4 	4
f 4 	5 	5
f 5 	6 	6
f 6 	7 	7
f 7 	8 	8
f 8 	9 	9
f 9 	10 	10
f 10 	11 	11
f 11 	12 	12
f 12 	13 	13
f 13 	14 	14
f 14 	15 	15
f 15 	16 	16
f 16 	17 	17
f 17 	18 	18
f 18 	19 	19
f 19 	20 	20
f 20 	21 	21
f 21 	22 	22
f 22 	23 	23
f 23 	24 	24
f 24 	25 	25
f 25 	26 	26
f 26 	27 	27
f 27 	28 	28
f 28 	29 	29
f 29 	30 	30
f 30 	31 	31
f 31 	32 	32
f 32 	33 	33
f 33 	34 	34
f 34 	35 	35
f 35 	36 	36
f 36 	37 	37
f 37 	38 	38
f 38 	39 	39
f 39 	40 	40
f 40 	41 	41
f 41 	42 	42
f 42 	43 	43
f 43 	44 	44
f 44 	45 	45
f 45 	46 	46
f 46 	47 	47
f 47 	48 	48
f 48 	49 	49
f 49 	50 	50
f 50 	51 	51
f 51 	52 	52
f 52 	53 	53
f 53 	54 	54
f 54 	55 	55
f 55 	56 	56
f 56 	57 	57
f 57 	58 	58
f 58 	59 	59
f 59 	60 	60
f 60 	61 	61
f 61 	62 	62
f 62 	63 	63
f 63 	64 	64
f 64 	65 	65
f 65 	66 	66
f 66 	67 	67
f 67 	68 	68
f 68 	2 	2
f 2 	1 	1
f 1 	4 	4
f 4 	5 	5
f 5 	6 	6
f 6 	7 	7
f 7 	8 	8
f 8 	9 	9
f 9 	10 	10
f 10 	11 	11
f 11 	12 	12
f 12 	13 	13
f 13 	14 	14
f 14 	15 	15
f 15 	16 	16
f 16 	17 	17
f 17 	18 	18
f 18 	19 	19
f 19 	20 	20
f 20 	21 	21
f 21 	22 	22
f 22 	23 	23
f 23 	24 	24
f 24 	25 	25
f 25 	26 	26
f 26 	27 	27
f 27 	28 	28
f 28 	29 	29
f 29 	30 	30
f 30 	31 	31
f 31 	32 	32
f 32 	33 	33
f 33 	34 	34
f 34 	35 	35
f 35 	36 	36
f 36 	37 	37
f 37 	38 	38
f 38 	39 	39
f 39 	40 	40
f 40 	41 	41
f 41 	42 	42
f 42 	43 	43
f 43 	44 	44
f 44 	45 	45
f 45 	46 	46
f 46 	47 	47
f 47 	48 	48
f 48 	49 	49
f 49 	50 	50
f 50 	51 	51
f 51 	52 	52
f 52 	53 	53
f 53 	54 	54
f 54 	55 	55
f 55 	56 	56
f 56 	57 	57
f 57 	58 	58
f 58 	59 	59
f 59 	60 	60
f 60 	61 	61
f 61 	62 	62
f 62 	63 	63
f 63 	64 	64
f 64 	65 	65
f 65 	66 	66
f 66 	67 	67
f 67 	68 	68
f 68 	2 	2
f 2 	1 	1
f 1 	4 	4
f 4 	5 	5
f 5 	6 	6
f 6 	7 	7
f 7 	8 	8
f 8 	9 	9
f 9 	10 	10
f 10 	11 	11
f 11 	12 	12
f 12 	13 	13
f 13 	14 	14
f 14 	15 	15
f 15 	16 	16
f 16 	17 	17
f 17 	18 	18
f 18 	19 	19
f 19 	20 	20
f 20 	21 	21
f 21 	22 	22
f 22 	23 	23
f 23 	24 	24
f 24 	25 	25
f 25 	26 	26
f 26 	27 	27
f 27 	28 	28
f 28 	29 	29
f 29 	30 	30
f 30 	31 	31
f 31 	32 	32
f 32 	33 	33
f 33 	34 	34
f 34 	35 	35
f 35 	36 	36
f 36 	37 	37
f 37 	38 	38
f 38 	39 	39
f 39 	40 	40
f 40 	41 	41
f 41 	42 	42
f 42 	43 	43
f 43 	44 	44
f 44 	45 	45
f 45 	46 	46
f 46 	47 	47
f 47 	48 	48
f 48 	49 	49
f 49 	50 	50
f 50 	51 	51
f 51 	52 	52
f 52 	53 	53
f 53 	54 	54
f 54 	55 	55
f 55 	56 	56
f 56 	57 	57
f 57 	58 	58
f 58 	59 	59
f 59 	60 	60
f 60 	61 	61
f 61 	62 	62
f 62 	63 	63
f 63 	64 	64
f 64 	65 	65
f 65 	66 	66
f 66 	67 	67
f 67 	68 	68
f 68 	2 	2
f 2 	1 	70
f 2 	70 	69
f 1 	4 	72
f 1 	72 	70
f 4 	5 	73
f 4 	73 	72
f 5 	6 	74
f 5 	74 	73
f 6 	7 	75
f 6 	75 	74
f 7 	8 	76
f 7 	76 	75
f 8 	9 	77
f 8 	77 	76
f 9 	10 	78
f 9 	78 	77
f 10 	11 	79
f 10 	79 	78
f 11 	12 	80
f 11 	80 	79
f 12 	13 	81
f 12 	81 	80
f 13 	14 	82
f 13 	82 	81
f 14 	15 	83
f 14 	83 	82
f 15 	16 	84
f 15 	84 	83
f 16 	17 	85
f 16 	85 	84
f 17 	18 	86
f 17 	86 	85
f 18 	19 	87
f 18 	87 	86
f 19 	20 	88
f 19 	88 	87
f 20 	21 	89
f 20 	89 	88
f 21 	22 	90
f 21 	90 	89
f 22 	23 	91
f 22 	91 	90
f 23 	24 	92
f 23 	92 	91
f 24 	25 	93
f 24 	93 	92
f 25 	26 	94
f 25 	94 	93
f 26 	27 	95
f 26 	95 	94
f 27 	28 	96
f 27 	96 	95
f 28 	29 	97
f 28 	97 	96
f 29 	30 	98
f 29 	98 	97
f 30 	31 	99
f 30 	99 	98
f 31 	32 	100
f 31 	100 	99
f 32 	33 	101
f 32 	101 	100
f 33 	34 	102
f 33 	102 	101
f 34 	35 	103
f 34 	103 	102
f 35 	36 	104
f 35 	104 	103
f 36 	37 	105
f 36 	105 	104
f 37 	38 	106
f 37 	106 	105
f 38 	39 	107
f 38 	107 	106
f 39 	40 	108
f 39 	108 	107
f 40 	41 	109
f 40 	109 	108
f 41 	42 	110
f 41 	110 	109
f 42 	43 	111
f 42 	111 	110
f 43 	44 	112
f 43 	112 	111
f 44 	45 	113
f 44 	113 	112
f 45 	46 	114
f 45 	114 	113
f 46 	47 	115
f 46 	115 	114
f 47 	48 	116
f 47 	116 	115
f 48 	49 	117
f 48 	117 	116
f 49 	50 	118
f 49 	118 	117
f 50 	51 	119
f 50 	119 	118
f 51 	52 	120
f 51 	120 	119
f 52 	53 	121
f 52 	121 	120
f 53 	54 	122
f 53 	122 	121
f 54 	55 	123
f 54 	123 	122
f 55 	56 	124
f 55 	124 	123
f 56 	57 	125
f 56 	125 	124
f 57 	58 	126
f 57 	126 	125
f 58 	59 	127
f 58 	127 	126
f 59 	60 	128
f 59 	128 	127
f 60 	61 	129
f 60 	129 	128
f 61 	62 	130
f 61 	130 	129
f 62 	63 	131
f 62 	131 	130
f 63 	64 	132
f 63 	132 	131
f 64 	65 	133
f 64 	133 	132
f 65 	66 	134
f 65 	134 	133
f 66 	67 	135
f 66 	135 	134
f 67 	68 	136
f 67 	136 	135
f 68 	2 	69
f 68 	69 	136
f 69 	70 	70
f 70 	72 	72
f 72 	73 	73
f 73 	74 	74
f 74 	75 	75
f 75 	76 	76
f 76 	77 	77
f 77 	78 	78
f 78 	79 	79
f 79 	80 	80
f 80 	81 	81
f 81 	82 	82
f 82 	83 	83
f 83 	84 	84
f 84 	85 	85
f 85 	86 	86
f 86 	87 	87
f 87 	88 	88
f 88 	89 	89
f 89 	90 	90
f 90 	91 	91
f 91 	92 	92
f 92 	93 	93
f 93 	94 	94
f 94 	95 	95
f 95 	96 	96
f 96 	97 	97
f 97 	98 	98
f 98 	99 	99
f 99 	100 	100
f 100 	101 	101
f 101 	102 	102
f 102 	103 	103
f 103 	104 	104
f 104 	105 	105
f 105 	106 	106
f 106 	107 	107
f 107 	108 	108
f 108 	109 	109
f 109 	110 	110
f 110 	111 	111
f 111 	112 	112
f 112 	113 	113
f 113 	114 	114
f 114 	115 	115
f 115 	116 	116
f 116 	117 	117
f 117 	118 	118
f 118 	119 	119
f 119 	120 	120
f 120 	121 	121
f 121 	122 	122
f 122 	123 	123
f 123 	124 	124
f 124 	125 	125
f 125 	126 	126
f 126 	127 	127
f 127 	128 	128
f 128 	129 	129
f 129 	130 	130
f 130 	131 	131
f 131 	132 	132
f 132 	133 	133
f 133 	134 	134
f 134 	135 	135
f 135 	136 	136
f 136 	69 	69
f 69 	70 	70
f 70 	72 	72
f 72 	73 	73
f 73 	74 	74
f 74 	75 	75
f 75 	76 	76
f 76 	77 	77
f 77 	78 	78
f 78 	79 	79
f 79 	80 	80
f 80 	81 	81
f 81 	82 	82
f 82 	83 	83
f 83 	84 	84
f 84 	85 	85
f 85 	86 	86
f 86 	87 	87
f 87 	88 	88
f 88 	89 	89
f 89 	90 	90
f 90 	91 	91
f 91 	92 	92
f 92 	93 	93
f 93 	94 	94
f 94 	95 	95
f 95 	96 	96
f 96 	97 	97
f 97 	98 	98
f 98 	99 	99
f 99 	100 	100
f 100 	101 	101
f 101 	102 	102
f 102 	103 	103
f 103 	104 	104
f 104 	105 	105
f 105 	106 	106
f 106 	107 	107
f 107 	108 	108
f 108 	109 	109
f 109 	110 	110
f 110 	111 	111
f 111 	112 	112
f 112 	113 	113
f 113 	114 	114
f 114 	115 	115
f 115 	116 	116
f 116 	117 	117
f 117 	118 	118
f 118 	119 	119
f 119 	120 	120
f 120 	121 	121
f 121 	122 	122
f 122 	123 	123
f 123 	124 	124
f 124 	125 	125
f 125 	126 	126
f 126 	127 	127
f 127 	128 	128
f 128 	129 	129
f 129 	130 	130
f 130 	131 	131
f 131 	132 	132
f 132 	133 	133
f 133 	134 	134
f 134 	135 	135
f 135 	136 	136
f 136 	69 	69
f 69 	70 	70
f 70 	72 	72
f 72 	73 	73
f 73 	74 	74
f 74 	75 	75
f 75 	76 	76
f 76 	77 	77
f 77 	78 	78
f 78 	79 	79
f 79 	80 	80
f 80 	81 	81
f 81 	82 	82
f 82 	83 	83
f 83 	84 	84
f 84 	85 	85
f 85 	86 	86
f 86 	87 	87
f 87 	88 	88
f 88 	89 	89
f 89 	90 	90
f 90 	91 	91
f 91 	92 	92
f 92 	93 	93
f 93 	94 	94
f 94 	95 	95
f 95 	96 	96
f 96 	97 	97
f 97 	98 	98
f 98 	99 	99
f 99 	100 	100
f 100 	101 	101
f 101 	102 	102
f 102 	103 	103
f 103 	104 	104
f 104 	105 	105
f 105 	106 	106
f 106 	107 	107
f 107 	108 	108
f 108 	109 	109
f 109 	110 	110
f 110 	111 	111
f 111 	112 	112
f 112 	113 	113
f 113 	114 	114
f 114 	115 	115
f 115 	116 	116
f 116 	117 	117
f 117 	118 	118
f 118 	119 	119
f 119 	120 	120
f 120 	121 	121
f 121 	122 	122
f 122 	123 	123
f 123 	124 	124
f 124 	125 	125
f 125 	126 	126
f 126 	127 	127
f 127 	128 	128
f 128 	129 	129
f 129 	130 	130
f 130 	131 	131
f 131 	132 	132
f 132 	133 	133
f 133 	134 	134
f 134 	135 	135
f 135 	136 	136
f 136 	69 	69
f 69 	70 	70
f 70 	72 	72
f 72 	73 	73
f 73 	74 	74
f 74 	75 	75
f 75 	76 	76
f 76 	77 	77
f 77 	78 	78
f 78 	79 	79
f 79 	80 	80
f 80 	81 	81
f 81 	82 	82
f 82 	83 	83
f 83 	84 	84
f 84 	85 	85
f 85 	86 	86
f 86 	87 	87
f 87 	88 	88
f 88 	89 	89
f 89 	90 	90
f 90 	91 	91
f 91 	92 	92
f 92 	93 	93
f 93 	94 	94
f 94 	95 	95
f 95 	96 	96
f 96 	97 	97
f 97 	98 	98
f 98 	99 	99
f 99 	100 	100
f 100 	101 	101
f 101 	102 	102
f 102 	103 	103
f 103 	104 	104
f 104 	105 	105
f 105 	106 	106
f 106 	107 	107
f 107 	108 	108
f 108 	109 	109
f 109 	110 	110
f 110 	111 	111
f 111 	112 	112
f 112 	113 	113
f 113 	114 	114
f 114 	115 	115
f 115 	116 	116
f 116 	117 	117
f 117 	118 	118
f 118 	119 	119
f 119 	120 	120
f 120 	121 	121
f 121 	122 	122
f 122 	123 	123
f 123 	124 	124
f 124 	125 	125
f 125 	126 	126
f 126 	127 	127
f 127 	128 	128
f 128 	129 	129
f 129 	130 	130
f 130 	131 	131
f 131 	132 	132
f 132 	133 	133
f 133 	134 	134
f 134 	135 	135
f 135 	136 	136
f 136 	69 	69
f 69 	70 	70
f 70 	72 	72
f 72 	73 	73
f 73 	74 	74
f 74 	75 	75
f 75 	76 	76
f 76 	77 	77
f 77 	78 	78
f 78 	79 	79
f 79 	80 	80
f 80 	81 	81
f 81 	82 	82
f 82 	83 	83
f 83 	84 	84
f 84 	85 	85
f 85 	86 	86
f 86 	87 	87
f 87 	88 	88
f 88 	89 	89
f 89 	90 	90
f 90 	91 	91
f 91 	92 	92
f 92 	93 	93
f 93 	94 	94
f 94 	95 	95
f 95 	96 	96
f 96 	97 	97
f 97 	98 	98
f 98 	99 	99
f 99 	100 	100
f 100 	101 	101
f 101 	102 	102
f 102 	103 	103
f 103 	104 	104
f 104 	105 	105
f 105 	106 	106
f 106 	107 	107
f 107 	108 	108
f 108 	109 	109
f 109 	110 	110
f 110 	111 	111
f 111 	112 	112
f 112 	113 	113
f 113 	114 	114
f 114 	115 	115
f 115 	116 	116
f 116 	117 	117
f 117 	118 	118
f 118 	119 	119
f 119 	120 	120
f 120 	121 	121
f 121 	122 	122
f 122 	123 	123
f 123 	124 	124
f 124 	125 	125
f 125 	126 	126
f 126 	127 	127
f 127 	128 	128
f 128 	129 	129
f 129 	130 	130
f 130 	131 	131
f 131 	132 	132
f 132 	133 	133
f 133 	134 	134
f 134 	135 	135
f 135 	136 	136
f 136 	69 	69
# 938 faces

 #end of obj_0

o obj_1
v -7.5 		-12.5 		63
v -8.7638 		-12.5 		62.9581
v -8.7446 		-12.7194 		62.9581
v -8.6875 		-12.9322 		62.9581
v -8.5944 		-13.1319 		62.9581
v -8.4681 		-13.3123 		62.9581
v -8.3123 		-13.4681 		62.9581
v -8.1319 		-13.5944 		62.9581
v -7.9322 		-13.6875 		62.9581
v -7.7194 		-13.7446 		62.9581
v -7.5 		-13.7638 		62.9581
v -7.2806 		-13.7446 		62.9581
v -7.0678 		-13.6875 		62.9581
v -6.8681 		-13.5944 		62.9581
v -6.6877 		-13.4681 		62.9581
v -6.5319 		-13.3123 		62.9581
v -6.4056 		-13.1319 		62.9581
v -6.3125 		-12.9322 		62.9581
v -6.2554 		-12.7194 		62.9581
v -6.2362 		-12.5 		62.9581
v -6.2554 		-12.2806 		62.9581
v -6.3125 		-12.0678 		62.9581
v -6.4056 		-11.8681 		62.9581
v -6.5319 		-11.6877 		62.9581
v -6.6877 		-11.5319 		62.9581
v -6.8681 		-11.4056 		62.9581
v -7.0678 		-11.3125 		62.9581
v -7.2806 		-11.2554 		62.9581
v -7.5 		-11.2362 		62.9581
v -7.7194 		-11.2554 		62.9581
v -7.9322 		-11.3125 		62.9581
v -8.1319 		-11.4056 		62.9581
v -8.3123 		-11.5319 		62.9581
v -8.4681 		-11.6877 		62.9581
v -8.5944 		-11.8681 		62.9581
v -8.6875 		-12.0678 		62.9581
v -8.7446 		-12.2806 		62.9581
v -10.0179 		-12.5 		62.8329
v -9.9796 		-12.9372 		62.8329
v -9.8661 		-13.3612 		62.8329
v -9.6806 		-13.7589 		62.8329
v -9.4288 		-14.1185 		62.8329
v -9.1185 		-14.4288 		62.8329
v -8.7589 		-14.6806 		62.8329
v -8.3612 		-14.8661 		62.8329
v -7.9372 		-14.9796 		62.8329
v -7.5 		-15.0179 		62.8329
v -7.0628 		-14.9796 		62.8329
v -6.6388 		-14.8661 		62.8329
v -6.2411 		-14.6806 		62.8329
v -5.8815 		-14.4288 		62.8329
v -5.5712 		-14.1185 		62.8329
v -5.3194 		-13.7589 		62.8329
v -5.1339 		-13.3612 		62.8329
v -5.0204 		-12.9372 		62.8329
v -4.9821 		-12.5 		62.8329
v -5.0204 		-12.0628 		62.8329
v -5.1339 		-11.6388 		62.8329
v -5.3194 		-11.2411 		62.8329
v -5.5712 		-10.8815 		62.8329
v -5.8815 		-10.5712 		62.8329
v -6.2411 		-10.3194 		62.8329
v -6.6388 		-10.1339 		62.8329
v -7.0628 		-10.0204 		62.8329
v -7.5 		-9.9821 		62.8329
v -7.9372 		-10.0204 		62.8329
v -8.3612 		-10.1339 		62.8329
v -8.7589 		-10.3194 		62.8329
v -9.1185 		-10.5712 		62.8329
v -9.4288 		-10.8815 		62.8329
v -9.6806 		-11.2411 		62.8329
v -9.8661 		-11.6388 		62.8329
v -9.9796 		-12.0628 		62.8329
v -11.2529 		-12.5 		62.6252
v -11.1959 		-13.1517 		62.6252
v -11.0265 		-13.7836 		62.6252
v -10.7501 		-14.3764 		62.6252
v -10.3749 		-14.9123 		62.6252
v -9.9123 		-15.3749 		62.6252
v -9.3764 		-15.7501 		62.6252
v -8.7836 		-16.0265 		62.6252
v -8.1517 		-16.1959 		62.6252
v -7.5 		-16.2529 		62.6252
v -6.8483 		-16.1959 		62.6252
v -6.2164 		-16.0265 		62.6252
v -5.6236 		-15.7501 		62.6252
v -5.0877 		-15.3749 		62.6252
v -4.6251 		-14.9123 		62.6252
v -4.2499 		-14.3764 		62.6252
v -3.9735 		-13.7836 		62.6252
v -3.8041 		-13.1517 		62.6252
v -3.7471 		-12.5 		62.6252
v -3.8041 		-11.8483 		62.6252
v -3.9735 		-11.2164 		62.6252
v -4.2499 		-10.6236 		62.6252
v -4.6251 		-10.0877 		62.6252
v -5.0877 		-9.6251 		62.6252
v -5.6236 		-9.2499 		62.6252
v -6.2164 		-8.9735 		62.6252
v -6.8483 		-8.8041 		62.6252
v -7.5 		-8.7471 		62.6252
v -8.1517 		-8.8041 		62.6252
v -8.7836 		-8.9735 		62.6252
v -9.3764 		-9.2499 		62.6252
v -9.9123 		-9.6251 		62.6252
v -10.3749 		-10.0877 		62.6252
v -10.7501 		-10.6236 		62.6252
v -11.0265 		-11.2164 		62.6252
v -11.1959 		-11.8483 		62.6252
v -12.4593 		-12.5 		62.3366
v -12.3839 		-13.3612 		62.3366
v -12.1602 		-14.1962 		62.3366
v -11.7949 		-14.9796 		62.3366
v -11.299 		-15.6878 		62.3366
v -10.6878 		-16.299 		62.3366
v -9.9796 		-16.7949 		62.3366
v -9.1962 		-17.1602 		62.3366
v -8.3612 		-17.3839 		62.3366
v -7.5 		-17.4593 		62.3366
v -6.6388 		-17.3839 		62.3366
v -5.8038 		-17.1602 		62.3366
v -5.0204 		-16.7949 		62.3366
v -4.3122 		-16.299 		62.3366
v -3.701 		-15.6878 		62.3366
v -3.2051 		-14.9796 		62.3366
v -2.8398 		-14.1962 		62.3366
v -2.6161 		-13.3612 		62.3366
v -2.5407 		-12.5 		62.3366
v -2.6161 		-11.6388 		62.3366
v -2.8398 		-10.8038 		62.3366
v -3.2051 		-10.0204 		62.3366
v -3.701 		-9.3122 		62.3366
v -4.3122 		-8.701 		62.3366
v -5.0204 		-8.2051 		62.3366
v -5.8038 		-7.8398 		62.3366
v -6.6388 		-7.6161 		62.3366
v -7.5 		-7.5407 		62.3366
v -8.3612 		-7.6161 		62.3366
v -9.1962 		-7.8398 		62.3366
v -9.9796 		-8.2051 		62.3366
v -10.6878 		-8.701 		62.3366
v -11.299 		-9.3122 		62.3366
v -11.7949 		-10.0204 		62.3366
v -12.1602 		-10.8038 		62.3366
v -12.3839 		-11.6388 		62.3366
v -13.628 		-12.5 		61.9694
v -13.5349 		-13.5641 		61.9694
v -13.2584 		-14.5959 		61.9694
v -12.807 		-15.564 		61.9694
v -12.1943 		-16.439 		61.9694
v -11.439 		-17.1943 		61.9694
v -10.564 		-17.807 		61.9694
v -9.5959 		-18.2584 		61.9694
v -8.5641 		-18.5349 		61.9694
v -7.5 		-18.628 		61.9694
v -6.4359 		-18.5349 		61.9694
v -5.4041 		-18.2584 		61.9694
v -4.436 		-17.807 		61.9694
v -3.561 		-17.1943 		61.9694
v -2.8057 		-16.439 		61.9694
v -2.193 		-15.564 		61.9694
v -1.7416 		-14.5959 		61.9694
v -1.4651 		-13.5641 		61.9694
v -1.372 		-12.5 		61.9694
v -1.4651 		-11.4359 		61.9694
v -1.7416 		-10.4041 		61.9694
v -2.193 		-9.436 		61.9694
v -2.8057 		-8.561 		61.9694
v -3.561 		-7.8057 		61.9694
v -4.436 		-7.193 		61.9694
v -5.4041 		-6.7416 		61.9694
v -6.4359 		-6.4651 		61.9694
v -7.5 		-6.372 		61.9694
v -8.5641 		-6.4651 		61.9694
v -9.5959 		-6.7416 		61.9694
v -10.564 		-7.193 		61.9694
v -11.439 		-7.8057 		61.9694
v -12.1943 		-8.561 		61.9694
v -12.807 		-9.436 		61.9694
v -13.2584 		-10.4041 		61.9694
v -13.5349 		-11.4359 		61.9694
v -14.75 		-12.5 		61.5263
v -14.6399 		-13.7589 		61.5263
v -14.3128 		-14.9796 		61.5263
v -13.7787 		-16.125 		61.5263
v -13.0538 		-17.1602 		61.5263
v -12.1602 		-18.0538 		61.5263
v -11.125 		-18.7787 		61.5263
v -9.9796 		-19.3128 		61.5263
v -8.7589 		-19.6399 		61.5263
v -7.5 		-19.75 		61.5263
v -6.2411 		-19.6399 		61.5263
v -5.0204 		-19.3128 		61.5263
v -3.875 		-18.7787 		61.5263
v -2.8398 		-18.0538 		61.5263
v -1.9462 		-17.1602 		61.5263
v -1.2213 		-16.125 		61.5263
v -0.6872 		-14.9796 		61.5263
v -0.3601 		-13.7589 		61.5263
v -0.25 		-12.5 		61.5263
v -0.3601 		-11.2411 		61.5263
v -0.6872 		-10.0204 		61.5263
v -1.2213 		-8.875 		61.5263
v -1.9462 		-7.8398 		61.5263
v -2.8398 		-6.9462 		61.5263
v -3.875 		-6.2213 		61.5263
v -5.0204 		-5.6872 		61.5263
v -6.2411 		-5.3601 		61.5263
v -7.5 		-5.25 		61.5263
v -8.7589 		-5.3601 		61.5263
v -9.9796 		-5.6872 		61.5263
v -11.125 		-6.2213 		61.5263
v -12.1602 		-6.9462 		61.5263
v -13.0538 		-7.8398 		61.5263
v -13.7787 		-8.875 		61.5263
v -14.3128 		-10.0204 		61.5263
v -14.6399 		-11.2411 		61.5263
v -15.8169 		-12.5 		61.0107
v -15.6905 		-13.9442 		61.0107
v -15.3153 		-15.3445 		61.0107
v -14.7026 		-16.6584 		61.0107
v -13.8711 		-17.846 		61.0107
v -12.846 		-18.8711 		61.0107
v -11.6584 		-19.7026 		61.0107
v -10.3445 		-20.3153 		61.0107
v -8.9442 		-20.6905 		61.0107
v -7.5 		-20.8169 		61.0107
v -6.0558 		-20.6905 		61.0107
v -4.6555 		-20.3153 		61.0107
v -3.3416 		-19.7026 		61.0107
v -2.154 		-18.8711 		61.0107
v -1.1289 		-17.846 		61.0107
v -0.2974 		-16.6584 		61.0107
v 0.3153 		-15.3445 		61.0107
v 0.6905 		-13.9442 		61.0107
v 0.8169 		-12.5 		61.0107
v 0.6905 		-11.0558 		61.0107
v 0.3153 		-9.6555 		61.0107
v -0.2974 		-8.3416 		61.0107
v -1.1289 		-7.154 		61.0107
v -2.154 		-6.1289 		61.0107
v -3.3416 		-5.2974 		61.0107
v -4.6555 		-4.6847 		61.0107
v -6.0558 		-4.3095 		61.0107
v -7.5 		-4.1831 		61.0107
v -8.9442 		-4.3095 		61.0107
v -10.3445 		-4.6847 		61.0107
v -11.6584 		-5.2974 		61.0107
v -12.846 		-6.1289 		61.0107
v -13.8711 		-7.154 		61.0107
v -14.7026 		-8.3416 		61.0107
v -15.3153 		-9.6555 		61.0107
v -15.6905 		-11.0558 		61.0107
v -16.8204 		-12.5 		60.4265
v -16.6788 		-14.1185 		60.4265
v -16.2583 		-15.6878 		60.4265
v -15.5717 		-17.1602 		60.4265
v -14.6399 		-18.4911 		60.4265
v -13.4911 		-19.6399 		60.4265
v -12.1602 		-20.5717 		60.4265
v -10.6878 		-21.2583 		60.4265
v -9.1185 		-21.6788 		60.4265
v -7.5 		-21.8204 		60.4265
v -5.8815 		-21.6788 		60.4265
v -4.3122 		-21.2583 		60.4265
v -2.8398 		-20.5717 		60.4265
v -1.5089 		-19.6399 		60.4265
v -0.3601 		-18.4911 		60.4265
v 0.5717 		-17.1602 		60.4265
v 1.2583 		-15.6878 		60.4265
v 1.6788 		-14.1185 		60.4265
v 1.8204 		-12.5 		60.4265
v 1.6788 		-10.8815 		60.4265
v 1.2583 		-9.3122 		60.4265
v 0.5717 		-7.8398 		60.4265
v -0.3601 		-6.5089 		60.4265
v -1.5089 		-5.3601 		60.4265
v -2.8398 		-4.4283 		60.4265
v -4.3122 		-3.7417 		60.4265
v -5.8815 		-3.3212 		60.4265
v -7.5 		-3.1796 		60.4265
v -9.1185 		-3.3212 		60.4265
v -10.6878 		-3.7417 		60.4265
v -12.1602 		-4.4283 		60.4265
v -13.4911 		-5.3601 		60.4265
v -14.6399 		-6.5089 		60.4265
v -15.5717 		-7.8398 		60.4265
v -16.2583 		-9.3122 		60.4265
v -16.6788 		-10.8815 		60.4265
v -17.753 		-12.5 		59.7782
v -17.5973 		-14.2804 		59.7782
v -17.1347 		-16.0067 		59.7782
v -16.3794 		-17.6265 		59.7782
v -15.3543 		-19.0905 		59.7782
v -14.0905 		-20.3543 		59.7782
v -12.6265 		-21.3794 		59.7782
v -11.0067 		-22.1347 		59.7782
v -9.2804 		-22.5973 		59.7782
v -7.5 		-22.753 		59.7782
v -5.7196 		-22.5973 		59.7782
v -3.9933 		-22.1347 		59.7782
v -2.3735 		-21.3794 		59.7782
v -0.9095 		-20.3543 		59.7782
v 0.3543 		-19.0905 		59.7782
v 1.3794 		-17.6265 		59.7782
v 2.1347 		-16.0067 		59.7782
v 2.5973 		-14.2804 		59.7782
v 2.753 		-12.5 		59.7782
v 2.5973 		-10.7196 		59.7782
v 2.1347 		-8.9933 		59.7782
v 1.3794 		-7.3735 		59.7782
v 0.3543 		-5.9095 		59.7782
v -0.9095 		-4.6457 		59.7782
v -2.3735 		-3.6206 		59.7782
v -3.9933 		-2.8653 		59.7782
v -5.7196 		-2.4027 		59.7782
v -7.5 		-2.247 		59.7782
v -9.2804 		-2.4027 		59.7782
v -11.0067 		-2.8653 		59.7782
v -12.6265 		-3.6206 		59.7782
v -14.0905 		-4.6457 		59.7782
v -15.3543 		-5.9095 		59.7782
v -16.3794 		-7.3735 		59.7782
v -17.1347 		-8.9933 		59.7782
v -17.5973 		-10.7196 		59.7782
v -18.6076 		-12.5 		59.0707
v -18.4389 		-14.4288 		59.0707
v -17.9378 		-16.299 		59.0707
v -17.1195 		-18.0538 		59.0707
v -16.0089 		-19.6399 		59.0707
v -14.6399 		-21.0089 		59.0707
v -13.0538 		-22.1195 		59.0707
v -11.299 		-22.9378 		59.0707
v -9.4288 		-23.4389 		59.0707
v -7.5 		-23.6076 		59.0707
v -5.5712 		-23.4389 		59.0707
v -3.701 		-22.9378 		59.0707
v -1.9462 		-22.1195 		59.0707
v -0.3601 		-21.0089 		59.0707
v 1.0089 		-19.6399 		59.0707
v 2.1195 		-18.0538 		59.0707
v 2.9378 		-16.299 		59.0707
v 3.4389 		-14.4288 		59.0707
v 3.6076 		-12.5 		59.0707
v 3.4389 		-10.5712 		59.0707
v 2.9378 		-8.701 		59.0707
v 2.1195 		-6.9462 		59.0707
v 1.0089 		-5.3601 		59.0707
v -0.3601 		-3.9911 		59.0707
v -1.9462 		-2.8805 		59.0707
v -3.701 		-2.0622 		59.0707
v -5.5712 		-1.5611 		59.0707
v -7.5 		-1.3924 		59.0707
v -9.4288 		-1.5611 		59.0707
v -11.299 		-2.0622 		59.0707
v -13.0538 		-2.8805 		59.0707
v -14.6399 		-3.9911 		59.0707
v -16.0089 		-5.3601 		59.0707
v -17.1195 		-6.9462 		59.0707
v -17.9378 		-8.701 		59.0707
v -18.4389 		-10.5712 		59.0707
v -19.3777 		-12.5 		58.3093
v -19.1973 		-14.5625 		58.3093
v -18.6614 		-16.5624 		58.3093
v -17.7864 		-18.4389 		58.3093
v -16.5988 		-20.1348 		58.3093
v -15.1348 		-21.5988 		58.3093
v -13.4389 		-22.7864 		58.3093
v -11.5624 		-23.6614 		58.3093
v -9.5625 		-24.1973 		58.3093
v -7.5 		-24.3777 		58.3093
v -5.4375 		-24.1973 		58.3093
v -3.4376 		-23.6614 		58.3093
v -1.5611 		-22.7864 		58.3093
v 0.1348 		-21.5988 		58.3093
v 1.5988 		-20.1348 		58.3093
v 2.7864 		-18.4389 		58.3093
v 3.6614 		-16.5624 		58.3093
v 4.1973 		-14.5625 		58.3093
v 4.3777 		-12.5 		58.3093
v 4.1973 		-10.4375 		58.3093
v 3.6614 		-8.4376 		58.3093
v 2.7864 		-6.5611 		58.3093
v 1.5988 		-4.8652 		58.3093
v 0.1348 		-3.4012 		58.3093
v -1.5611 		-2.2136 		58.3093
v -3.4376 		-1.3386 		58.3093
v -5.4375 		-0.8027 		58.3093
v -7.5 		-0.6223 		58.3093
v -9.5625 		-0.8027 		58.3093
v -11.5624 		-1.3386 		58.3093
v -13.4389 		-2.2136 		58.3093
v -15.1348 		-3.4012 		58.3093
v -16.5988 		-4.8652 		58.3093
v -17.7864 		-6.5611 		58.3093
v -18.6614 		-8.4376 		58.3093
v -19.1973 		-10.4375 		58.3093
v -20.0574 		-12.5 		57.5
v -19.8666 		-14.6806 		57.5
v -19.3001 		-16.7949 		57.5
v -18.375 		-18.7787 		57.5
v -17.1195 		-20.5717 		57.5
v -15.5717 		-22.1195 		57.5
v -13.7787 		-23.375 		57.5
v -11.7949 		-24.3001 		57.5
v -9.6806 		-24.8666 		57.5
v -7.5 		-25.0574 		57.5
v -5.3194 		-24.8666 		57.5
v -3.2051 		-24.3001 		57.5
v -1.2213 		-23.375 		57.5
v 0.5717 		-22.1195 		57.5
v 2.1195 		-20.5717 		57.5
v 3.375 		-18.7787 		57.5
v 4.3001 		-16.7949 		57.5
v 4.8666 		-14.6806 		57.5
v 5.0574 		-12.5 		57.5
v 4.8666 		-10.3194 		57.5
v 4.3001 		-8.2051 		57.5
v 3.375 		-6.2213 		57.5
v 2.1195 		-4.4283 		57.5
v 0.5717 		-2.8805 		57.5
v -1.2213 		-1.625 		57.5
v -3.2051 		-0.6999 		57.5
v -5.3194 		-0.1334 		57.5
v -7.5 		0.0574 		57.5
v -9.6806 		-0.1334 		57.5
v -11.7949 		-0.6999 		57.5
v -13.7787 		-1.625 		57.5
v -15.5717 		-2.8805 		57.5
v -17.1195 		-4.4283 		57.5
v -18.375 		-6.2213 		57.5
v -19.3001 		-8.2051 		57.5
v -19.8666 		-10.3194 		57.5
v -20.6415 		-12.5 		56.6488
v -20.4418 		-14.782 		56.6488
v -19.8489 		-16.9946 		56.6488
v -18.8808 		-19.0707 		56.6488
v -17.5669 		-20.9472 		56.6488
v -15.9472 		-22.5669 		56.6488
v -14.0707 		-23.8808 		56.6488
v -11.9946 		-24.8489 		56.6488
v -9.782 		-25.4418 		56.6488
v -7.5 		-25.6415 		56.6488
v -5.218 		-25.4418 		56.6488
v -3.0054 		-24.8489 		56.6488
v -0.9293 		-23.8808 		56.6488
v 0.9472 		-22.5669 		56.6488
v 2.5669 		-20.9472 		56.6488
v 3.8808 		-19.0707 		56.6488
v 4.8489 		-16.9946 		56.6488
v 5.4418 		-14.782 		56.6488
v 5.6415 		-12.5 		56.6488
v 5.4418 		-10.218 		56.6488
v 4.8489 		-8.0054 		56.6488
v 3.8808 		-5.9293 		56.6488
v 2.5669 		-4.0528 		56.6488
v 0.9472 		-2.4331 		56.6488
v -0.9293 		-1.1192 		56.6488
v -3.0054 		-0.1511 		56.6488
v -5.218 		0.4418 		56.6488
v -7.5 		0.6415 		56.6488
v -9.782 		0.4418 		56.6488
v -11.9946 		-0.1511 		56.6488
v -14.0707 		-1.1192 		56.6488
v -15.9472 		-2.4331 		56.6488
v -17.5669 		-4.0528 		56.6488
v -18.8808 		-5.9293 		56.6488
v -19.8489 		-8.0054 		56.6488
v -20.4418 		-10.218 		56.6488
v -21.1255 		-12.5 		55.7622
v -20.9185 		-14.8661 		55.7622
v -20.3038 		-17.1602 		55.7622
v -19.3001 		-19.3128 		55.7622
v -17.9378 		-21.2583 		55.7622
v -16.2583 		-22.9378 		55.7622
v -14.3128 		-24.3001 		55.7622
v -12.1602 		-25.3038 		55.7622
v -9.8661 		-25.9185 		55.7622
v -7.5 		-26.1255 		55.7622
v -5.1339 		-25.9185 		55.7622
v -2.8398 		-25.3038 		55.7622
v -0.6872 		-24.3001 		55.7622
v 1.2583 		-22.9378 		55.7622
v 2.9378 		-21.2583 		55.7622
v 4.3001 		-19.3128 		55.7622
v 5.3038 		-17.1602 		55.7622
v 5.9185 		-14.8661 		55.7622
v 6.1255 		-12.5 		55.7622
v 5.9185 		-10.1339 		55.7622
v 5.3038 		-7.8398 		55.7622
v 4.3001 		-5.6872 		55.7622
v 2.9378 		-3.7417 		55.7622
v 1.2583 		-2.0622 		55.7622
v -0.6872 		-0.6999 		55.7622
v -2.8398 		0.3038 		55.7622
v -5.1339 		0.9185 		55.7622
v -7.5 		1.1255 		55.7622
v -9.8661 		0.9185 		55.7622
v -12.1602 		0.3038 		55.7622
v -14.3128 		-0.6999 		55.7622
v -16.2583 		-2.0622 		55.7622
v -17.9378 		-3.7417 		55.7622
v -19.3001 		-5.6872 		55.7622
v -20.3038 		-7.8398 		55.7622
v -20.9185 		-10.1339 		55.7622
v -21.5059 		-12.5 		54.847
v -21.2931 		-14.9321 		54.847
v -20.6613 		-17.2903 		54.847
v -19.6295 		-19.503 		54.847
v -18.2292 		-21.5028 		54.847
v -16.5028 		-23.2292 		54.847
v -14.503 		-24.6295 		54.847
v -12.2903 		-25.6613 		54.847
v -9.9321 		-26.2931 		54.847
v -7.5 		-26.5059 		54.847
v -5.0679 		-26.2931 		54.847
v -2.7097 		-25.6613 		54.847
v -0.497 		-24.6295 		54.847
v 1.5028 		-23.2292 		54.847
v 3.2292 		-21.5028 		54.847
v 4.6295 		-19.503 		54.847
v 5.6613 		-17.2903 		54.847
v 6.2931 		-14.9321 		54.847
v 6.5059 		-12.5 		54.847
v 6.2931 		-10.0679 		54.847
v 5.6613 		-7.7097 		54.847
v 4.6295 		-5.497 		54.847
v 3.2292 		-3.4972 		54.847
v 1.5028 		-1.7708 		54.847
v -0.497 		-0.3705 		54.847
v -2.7097 		0.6613 		54.847
v -5.0679 		1.2931 		54.847
v -7.5 		1.5059 		54.847
v -9.9321 		1.2931 		54.847
v -12.2903 		0.6613 		54.847
v -14.503 		-0.3705 		54.847
v -16.5028 		-1.7708 		54.847
v -18.2292 		-3.4972 		54.847
v -19.6295 		-5.497 		54.847
v -20.6613 		-7.7097 		54.847
v -21.2931 		-10.0679 		54.847
v -21.7797 		-12.5 		53.9101
v -21.5628 		-14.9796 		53.9101
v -20.9185 		-17.3839 		53.9101
v -19.8666 		-19.6399 		53.9101
v -18.4389 		-21.6788 		53.9101
v -16.6788 		-23.4389 		53.9101
v -14.6399 		-24.8666 		53.9101
v -12.3839 		-25.9185 		53.9101
v -9.9796 		-26.5628 		53.9101
v -7.5 		-26.7797 		53.9101
v -5.0204 		-26.5628 		53.9101
v -2.6161 		-25.9185 		53.9101
v -0.3601 		-24.8666 		53.9101
v 1.6788 		-23.4389 		53.9101
v 3.4389 		-21.6788 		53.9101
v 4.8666 		-19.6399 		53.9101
v 5.9185 		-17.3839 		53.9101
v 6.5628 		-14.9796 		53.9101
v 6.7797 		-12.5 		53.9101
v 6.5628 		-10.0204 		53.9101
v 5.9185 		-7.6161 		53.9101
v 4.8666 		-5.3601 		53.9101
v 3.4389 		-3.3212 		53.9101
v 1.6788 		-1.5611 		53.9101
v -0.3601 		-0.1334 		53.9101
v -2.6161 		0.9185 		53.9101
v -5.0204 		1.5628 		53.9101
v -7.5 		1.7797 		53.9101
v -9.9796 		1.5628 		53.9101
v -12.3839 		0.9185 		53.9101
v -14.6399 		-0.1334 		53.9101
v -16.6788 		-1.5611 		53.9101
v -18.4389 		-3.3212 		53.9101
v -19.8666 		-5.3601 		53.9101
v -20.9185 		-7.6161 		53.9101
v -21.5628 		-10.0204 		53.9101
v -21.9448 		-12.5 		52.9587
v -21.7254 		-15.0083 		52.9587
v -21.0737 		-17.4404 		52.9587
v -20.0096 		-19.7224 		52.9587
v -18.5654 		-21.785 		52.9587
v -16.785 		-23.5654 		52.9587
v -14.7224 		-25.0096 		52.9587
v -12.4404 		-26.0737 		52.9587
v -10.0083 		-26.7254 		52.9587
v -7.5 		-26.9448 		52.9587
v -4.9917 		-26.7254 		52.9587
v -2.5596 		-26.0737 		52.9587
v -0.2776 		-25.0096 		52.9587
v 1.785 		-23.5654 		52.9587
v 3.5654 		-21.785 		52.9587
v 5.0096 		-19.7224 		52.9587
v 6.0737 		-17.4404 		52.9587
v 6.7254 		-15.0083 		52.9587
v 6.9448 		-12.5 		52.9587
v 6.7254 		-9.9917 		52.9587
v 6.0737 		-7.5596 		52.9587
v 5.0096 		-5.2776 		52.9587
v 3.5654 		-3.215 		52.9587
v 1.785 		-1.4346 		52.9587
v -0.2776 		0.0096 		52.9587
v -2.5596 		1.0737 		52.9587
v -4.9917 		1.7254 		52.9587
v -7.5 		1.9448 		52.9587
v -10.0083 		1.7254 		52.9587
v -12.4404 		1.0737 		52.9587
v -14.7224 		0.0096 		52.9587
v -16.785 		-1.4346 		52.9587
v -18.5654 		-3.215 		52.9587
v -20.0096 		-5.2776 		52.9587
v -21.0737 		-7.5596 		52.9587
v -21.7254 		-9.9917 		52.9587
v -22 		-12.5 		52
v -21.7797 		-15.0179 		52
v -21.1255 		-17.4593 		52
v -20.0574 		-19.75 		52
v -18.6076 		-21.8204 		52
v -16.8204 		-23.6076 		52
v -14.75 		-25.0574 		52
v -12.4593 		-26.1255 		52
v -10.0179 		-26.7797 		52
v -7.5 		-27 		52
v -4.9821 		-26.7797 		52
v -2.5407 		-26.1255 		52
v -0.25 		-25.0574 		52
v 1.8204 		-23.6076 		52
v 3.6076 		-21.8204 		52
v 5.0574 		-19.75 		52
v 6.1255 		-17.4593 		52
v 6.7797 		-15.0179 		52
v 7 		-12.5 		52
v 6.7797 		-9.9821 		52
v 6.1255 		-7.5407 		52
v 5.0574 		-5.25 		52
v 3.6076 		-3.1796 		52
v 1.8204 		-1.3924 		52
v -0.25 		0.0574 		52
v -2.5407 		1.1255 		52
v -4.9821 		1.7797 		52
v -7.5 		2 		52
v -10.0179 		1.7797 		52
v -12.4593 		1.1255 		52
v -14.75 		0.0574 		52
v -16.8204 		-1.3924 		52
v -18.6076 		-3.1796 		52
v -20.0574 		-5.25 		52
v -21.1255 		-7.5407 		52
v -21.7797 		-9.9821 		52
v -7.5 		-12.5 		52
# 650 vertices

g group_1_16448250

usemtl color_16448250
s 0

f 137 	138 	139
f 137 	139 	140
f 137 	140 	141
f 137 	141 	142
f 137 	142 	143
f 137 	143 	144
f 137 	144 	145
f 137 	145 	146
f 137 	146 	147
f 137 	147 	148
f 137 	148 	149
f 137 	149 	150
f 137 	150 	151
f 137 	151 	152
f 137 	152 	153
f 137 	153 	154
f 137 	154 	155
f 137 	155 	156
f 137 	156 	157
f 137 	157 	158
f 137 	158 	159
f 137 	159 	160
f 137 	160 	161
f 137 	161 	162
f 137 	162 	163
f 137 	163 	164
f 137 	164 	165
f 137 	165 	166
f 137 	166 	167
f 137 	167 	168
f 137 	168 	169
f 137 	169 	170
f 137 	170 	171
f 137 	171 	172
f 137 	172 	173
f 137 	173 	138
f 139 	138 	175
f 138 	174 	175
f 140 	139 	176
f 139 	175 	176
f 141 	140 	177
f 140 	176 	177
f 142 	141 	178
f 141 	177 	178
f 143 	142 	179
f 142 	178 	179
f 144 	143 	180
f 143 	179 	180
f 145 	144 	181
f 144 	180 	181
f 146 	145 	182
f 145 	181 	182
f 147 	146 	183
f 146 	182 	183
f 148 	147 	184
f 147 	183 	184
f 149 	148 	185
f 148 	184 	185
f 150 	149 	186
f 149 	185 	186
f 151 	150 	187
f 150 	186 	187
f 152 	151 	188
f 151 	187 	188
f 153 	152 	189
f 152 	188 	189
f 154 	153 	190
f 153 	189 	190
f 155 	154 	191
f 154 	190 	191
f 156 	155 	192
f 155 	191 	192
f 157 	156 	193
f 156 	192 	193
f 158 	157 	194
f 157 	193 	194
f 159 	158 	195
f 158 	194 	195
f 160 	159 	196
f 159 	195 	196
f 161 	160 	197
f 160 	196 	197
f 162 	161 	198
f 161 	197 	198
f 163 	162 	199
f 162 	198 	199
f 164 	163 	200
f 163 	199 	200
f 165 	164 	201
f 164 	200 	201
f 166 	165 	202
f 165 	201 	202
f 167 	166 	203
f 166 	202 	203
f 168 	167 	204
f 167 	203 	204
f 169 	168 	205
f 168 	204 	205
f 170 	169 	206
f 169 	205 	206
f 171 	170 	207
f 170 	206 	207
f 172 	171 	208
f 171 	207 	208
f 173 	172 	209
f 172 	208 	209
f 138 	173 	174
f 173 	209 	174
f 175 	174 	211
f 174 	210 	211
f 176 	175 	212
f 175 	211 	212
f 177 	176 	213
f 176 	212 	213
f 178 	177 	214
f 177 	213 	214
f 179 	178 	215
f 178 	214 	215
f 180 	179 	216
f 179 	215 	216
f 181 	180 	217
f 180 	216 	217
f 182 	181 	218
f 181 	217 	218
f 183 	182 	219
f 182 	218 	219
f 184 	183 	220
f 183 	219 	220
f 185 	184 	221
f 184 	220 	221
f 186 	185 	222
f 185 	221 	222
f 187 	186 	223
f 186 	222 	223
f 188 	187 	224
f 187 	223 	224
f 189 	188 	225
f 188 	224 	225
f 190 	189 	226
f 189 	225 	226
f 191 	190 	227
f 190 	226 	227
f 192 	191 	228
f 191 	227 	228
f 193 	192 	229
f 192 	228 	229
f 194 	193 	230
f 193 	229 	230
f 195 	194 	231
f 194 	230 	231
f 196 	195 	232
f 195 	231 	232
f 197 	196 	233
f 196 	232 	233
f 198 	197 	234
f 197 	233 	234
f 199 	198 	235
f 198 	234 	235
f 200 	199 	236
f 199 	235 	236
f 201 	200 	237
f 200 	236 	237
f 202 	201 	238
f 201 	237 	238
f 203 	202 	239
f 202 	238 	239
f 204 	203 	240
f 203 	239 	240
f 205 	204 	241
f 204 	240 	241
f 206 	205 	242
f 205 	241 	242
f 207 	206 	243
f 206 	242 	243
f 208 	207 	244
f 207 	243 	244
f 209 	208 	245
f 208 	244 	245
f 174 	209 	210
f 209 	245 	210
f 211 	210 	247
f 210 	246 	247
f 212 	211 	248
f 211 	247 	248
f 213 	212 	249
f 212 	248 	249
f 214 	213 	250
f 213 	249 	250
f 215 	214 	251
f 214 	250 	251
f 216 	215 	252
f 215 	251 	252
f 217 	216 	253
f 216 	252 	253
f 218 	217 	254
f 217 	253 	254
f 219 	218 	255
f 218 	254 	255
f 220 	219 	256
f 219 	255 	256
f 221 	220 	257
f 220 	256 	257
f 222 	221 	258
f 221 	257 	258
f 223 	222 	259
f 222 	258 	259
f 224 	223 	260
f 223 	259 	260
f 225 	224 	261
f 224 	260 	261
f 226 	225 	262
f 225 	261 	262
f 227 	226 	263
f 226 	262 	263
f 228 	227 	264
f 227 	263 	264
f 229 	228 	265
f 228 	264 	265
f 230 	229 	266
f 229 	265 	266
f 231 	230 	267
f 230 	266 	267
f 232 	231 	268
f 231 	267 	268
f 233 	232 	269
f 232 	268 	269
f 234 	233 	270
f 233 	269 	270
f 235 	234 	271
f 234 	270 	271
f 236 	235 	272
f 235 	271 	272
f 237 	236 	273
f 236 	272 	273
f 238 	237 	274
f 237 	273 	274
f 239 	238 	275
f 238 	274 	275
f 240 	239 	276
f 239 	275 	276
f 241 	240 	277
f 240 	276 	277
f 242 	241 	278
f 241 	277 	278
f 243 	242 	279
f 242 	278 	279
f 244 	243 	280
f 243 	279 	280
f 245 	244 	281
f 244 	280 	281
f 210 	245 	246
f 245 	281 	246
f 247 	246 	283
f 246 	282 	283
f 248 	247 	284
f 247 	283 	284
f 249 	248 	285
f 248 	284 	285
f 250 	249 	286
f 249 	285 	286
f 251 	250 	287
f 250 	286 	287
f 252 	251 	288
f 251 	287 	288
f 253 	252 	289
f 252 	288 	289
f 254 	253 	290
f 253 	289 	290
f 255 	254 	291
f 254 	290 	291
f 256 	255 	292
f 255 	291 	292
f 257 	256 	293
f 256 	292 	293
f 258 	257 	294
f 257 	293 	294
f 259 	258 	295
f 258 	294 	295
f 260 	259 	296
f 259 	295 	296
f 261 	260 	297
f 260 	296 	297
f 262 	261 	298
f 261 	297 	298
f 263 	262 	299
f 262 	298 	299
f 264 	263 	300
f 263 	299 	300
f 265 	264 	301
f 264 	300 	301
f 266 	265 	302
f 265 	301 	302
f 267 	266 	303
f 266 	302 	303
f 268 	267 	304
f 267 	303 	304
f 269 	268 	305
f 268 	304 	305
f 270 	269 	306
f 269 	305 	306
f 271 	270 	307
f 270 	306 	307
f 272 	271 	308
f 271 	307 	308
f 273 	272 	309
f 272 	308 	309
f 274 	273 	310
f 273 	309 	310
f 275 	274 	311
f 274 	310 	311
f 276 	275 	312
f 275 	311 	312
f 277 	276 	313
f 276 	312 	313
f 278 	277 	314
f 277 	313 	314
f 279 	278 	315
f 278 	314 	315
f 280 	279 	316
f 279 	315 	316
f 281 	280 	317
f 280 	316 	317
f 246 	281 	282
f 281 	317 	282
f 283 	282 	319
f 282 	318 	319
f 284 	283 	320
f 283 	319 	320
f 285 	284 	321
f 284 	320 	321
f 286 	285 	322
f 285 	321 	322
f 287 	286 	323
f 286 	322 	323
f 288 	287 	324
f 287 	323 	324
f 289 	288 	325
f 288 	324 	325
f 290 	289 	326
f 289 	325 	326
f 291 	290 	327
f 290 	326 	327
f 292 	291 	328
f 291 	327 	328
f 293 	292 	329
f 292 	328 	329
f 294 	293 	330
f 293 	329 	330
f 295 	294 	331
f 294 	330 	331
f 296 	295 	332
f 295 	331 	332
f 297 	296 	333
f 296 	332 	333
f 298 	297 	334
f 297 	333 	334
f 299 	298 	335
f 298 	334 	335
f 300 	299 	336
f 299 	335 	336
f 301 	300 	337
f 300 	336 	337
f 302 	301 	338
f 301 	337 	338
f 303 	302 	339
f 302 	338 	339
f 304 	303 	340
f 303 	339 	340
f 305 	304 	341
f 304 	340 	341
f 306 	305 	342
f 305 	341 	342
f 307 	306 	343
f 306 	342 	343
f 308 	307 	344
f 307 	343 	344
f 309 	308 	345
f 308 	344 	345
f 310 	309 	346
f 309 	345 	346
f 311 	310 	347
f 310 	346 	347
f 312 	311 	348
f 311 	347 	348
f 313 	312 	349
f 312 	348 	349
f 314 	313 	350
f 313 	349 	350
f 315 	314 	351
f 314 	350 	351
f 316 	315 	352
f 315 	351 	352
f 317 	316 	353
f 316 	352 	353
f 282 	317 	318
f 317 	353 	318
f 319 	318 	355
f 318 	354 	355
f 320 	319 	356
f 319 	355 	356
f 321 	320 	357
f 320 	356 	357
f 322 	321 	358
f 321 	357 	358
f 323 	322 	359
f 322 	358 	359
f 324 	323 	360
f 323 	359 	360
f 325 	324 	361
f 324 	360 	361
f 326 	325 	362
f 325 	361 	362
f 327 	326 	363
f 326 	362 	363
f 328 	327 	364
f 327 	363 	364
f 329 	328 	365
f 328 	364 	365
f 330 	329 	366
f 329 	365 	366
f 331 	330 	367
f 330 	366 	367
f 332 	331 	368
f 331 	367 	368
f 333 	332 	369
f 332 	368 	369
f 334 	333 	370
f 333 	369 	370
f 335 	334 	371
f 334 	370 	371
f 336 	335 	372
f 335 	371 	372
f 337 	336 	373
f 336 	372 	373
f 338 	337 	374
f 337 	373 	374
f 339 	338 	375
f 338 	374 	375
f 340 	339 	376
f 339 	375 	376
f 341 	340 	377
f 340 	376 	377
f 342 	341 	378
f 341 	377 	378
f 343 	342 	379
f 342 	378 	379
f 344 	343 	380
f 343 	379 	380
f 345 	344 	381
f 344 	380 	381
f 346 	345 	382
f 345 	381 	382
f 347 	346 	383
f 346 	382 	383
f 348 	347 	384
f 347 	383 	384
f 349 	348 	385
f 348 	384 	385
f 350 	349 	386
f 349 	385 	386
f 351 	350 	387
f 350 	386 	387
f 352 	351 	388
f 351 	387 	388
f 353 	352 	389
f 352 	388 	389
f 318 	353 	354
f 353 	389 	354
f 355 	354 	391
f 354 	390 	391
f 356 	355 	392
f 355 	391 	392
f 357 	356 	393
f 356 	392 	393
f 358 	357 	394
f 357 	393 	394
f 359 	358 	395
f 358 	394 	395
f 360 	359 	396
f 359 	395 	396
f 361 	360 	397
f 360 	396 	397
f 362 	361 	398
f 361 	397 	398
f 363 	362 	399
f 362 	398 	399
f 364 	363 	400
f 363 	399 	400
f 365 	364 	401
f 364 	400 	401
f 366 	365 	402
f 365 	401 	402
f 367 	366 	403
f 366 	402 	403
f 368 	367 	404
f 367 	403 	404
f 369 	368 	405
f 368 	404 	405
f 370 	369 	406
f 369 	405 	406
f 371 	370 	407
f 370 	406 	407
f 372 	371 	408
f 371 	407 	408
f 373 	372 	409
f 372 	408 	409
f 374 	373 	410
f 373 	409 	410
f 375 	374 	411
f 374 	410 	411
f 376 	375 	412
f 375 	411 	412
f 377 	376 	413
f 376 	412 	413
f 378 	377 	414
f 377 	413 	414
f 379 	378 	415
f 378 	414 	415
f 380 	379 	416
f 379 	415 	416
f 381 	380 	417
f 380 	416 	417
f 382 	381 	418
f 381 	417 	418
f 383 	382 	419
f 382 	418 	419
f 384 	383 	420
f 383 	419 	420
f 385 	384 	421
f 384 	420 	421
f 386 	385 	422
f 385 	421 	422
f 387 	386 	423
f 386 	422 	423
f 388 	387 	424
f 387 	423 	424
f 389 	388 	425
f 388 	424 	425
f 354 	389 	390
f 389 	425 	390
f 391 	390 	427
f 390 	426 	427
f 392 	391 	428
f 391 	427 	428
f 393 	392 	429
f 392 	428 	429
f 394 	393 	430
f 393 	429 	430
f 395 	394 	431
f 394 	430 	431
f 396 	395 	432
f 395 	431 	432
f 397 	396 	433
f 396 	432 	433
f 398 	397 	434
f 397 	433 	434
f 399 	398 	435
f 398 	434 	435
f 400 	399 	436
f 399 	435 	436
f 401 	400 	437
f 400 	436 	437
f 402 	401 	438
f 401 	437 	438
f 403 	402 	439
f 402 	438 	439
f 404 	403 	440
f 403 	439 	440
f 405 	404 	441
f 404 	440 	441
f 406 	405 	442
f 405 	441 	442
f 407 	406 	443
f 406 	442 	443
f 408 	407 	444
f 407 	443 	444
f 409 	408 	445
f 408 	444 	445
f 410 	409 	446
f 409 	445 	446
f 411 	410 	447
f 410 	446 	447
f 412 	411 	448
f 411 	447 	448
f 413 	412 	449
f 412 	448 	449
f 414 	413 	450
f 413 	449 	450
f 415 	414 	451
f 414 	450 	451
f 416 	415 	452
f 415 	451 	452
f 417 	416 	453
f 416 	452 	453
f 418 	417 	454
f 417 	453 	454
f 419 	418 	455
f 418 	454 	455
f 420 	419 	456
f 419 	455 	456
f 421 	420 	457
f 420 	456 	457
f 422 	421 	458
f 421 	457 	458
f 423 	422 	459
f 422 	458 	459
f 424 	423 	460
f 423 	459 	460
f 425 	424 	461
f 424 	460 	461
f 390 	425 	426
f 425 	461 	426
f 427 	426 	463
f 426 	462 	463
f 428 	427 	464
f 427 	463 	464
f 429 	428 	465
f 428 	464 	465
f 430 	429 	466
f 429 	465 	466
f 431 	430 	467
f 430 	466 	467
f 432 	431 	468
f 431 	467 	468
f 433 	432 	469
f 432 	468 	469
f 434 	433 	470
f 433 	469 	470
f 435 	434 	471
f 434 	470 	471
f 436 	435 	472
f 435 	471 	472
f 437 	436 	473
f 436 	472 	473
f 438 	437 	474
f 437 	473 	474
f 439 	438 	475
f 438 	474 	475
f 440 	439 	476
f 439 	475 	476
f 441 	440 	477
f 440 	476 	477
f 442 	441 	478
f 441 	477 	478
f 443 	442 	479
f 442 	478 	479
f 444 	443 	480
f 443 	479 	480
f 445 	444 	481
f 444 	480 	481
f 446 	445 	482
f 445 	481 	482
f 447 	446 	483
f 446 	482 	483
f 448 	447 	484
f 447 	483 	484
f 449 	448 	485
f 448 	484 	485
f 450 	449 	486
f 449 	485 	486
f 451 	450 	487
f 450 	486 	487
f 452 	451 	488
f 451 	487 	488
f 453 	452 	489
f 452 	488 	489
f 454 	453 	490
f 453 	489 	490
f 455 	454 	491
f 454 	490 	491
f 456 	455 	492
f 455 	491 	492
f 457 	456 	493
f 456 	492 	493
f 458 	457 	494
f 457 	493 	494
f 459 	458 	495
f 458 	494 	495
f 460 	459 	496
f 459 	495 	496
f 461 	460 	497
f 460 	496 	497
f 426 	461 	462
f 461 	497 	462
f 463 	462 	499
f 462 	498 	499
f 464 	463 	500
f 463 	499 	500
f 465 	464 	501
f 464 	500 	501
f 466 	465 	502
f 465 	501 	502
f 467 	466 	503
f 466 	502 	503
f 468 	467 	504
f 467 	503 	504
f 469 	468 	505
f 468 	504 	505
f 470 	469 	506
f 469 	505 	506
f 471 	470 	507
f 470 	506 	507
f 472 	471 	508
f 471 	507 	508
f 473 	472 	509
f 472 	508 	509
f 474 	473 	510
f 473 	509 	510
f 475 	474 	511
f 474 	510 	511
f 476 	475 	512
f 475 	511 	512
f 477 	476 	513
f 476 	512 	513
f 478 	477 	514
f 477 	513 	514
f 479 	478 	515
f 478 	514 	515
f 480 	479 	516
f 479 	515 	516
f 481 	480 	517
f 480 	516 	517
f 482 	481 	518
f 481 	517 	518
f 483 	482 	519
f 482 	518 	519
f 484 	483 	520
f 483 	519 	520
f 485 	484 	521
f 484 	520 	521
f 486 	485 	522
f 485 	521 	522
f 487 	486 	523
f 486 	522 	523
f 488 	487 	524
f 487 	523 	524
f 489 	488 	525
f 488 	524 	525
f 490 	489 	526
f 489 	525 	526
f 491 	490 	527
f 490 	526 	527
f 492 	491 	528
f 491 	527 	528
f 493 	492 	529
f 492 	528 	529
f 494 	493 	530
f 493 	529 	530
f 495 	494 	531
f 494 	530 	531
f 496 	495 	532
f 495 	531 	532
f 497 	496 	533
f 496 	532 	533
f 462 	497 	498
f 497 	533 	498
f 499 	498 	535
f 498 	534 	535
f 500 	499 	536
f 499 	535 	536
f 501 	500 	537
f 500 	536 	537
f 502 	501 	538
f 501 	537 	538
f 503 	502 	539
f 502 	538 	539
f 504 	503 	540
f 503 	539 	540
f 505 	504 	541
f 504 	540 	541
f 506 	505 	542
f 505 	541 	542
f 507 	506 	543
f 506 	542 	543
f 508 	507 	544
f 507 	543 	544
f 509 	508 	545
f 508 	544 	545
f 510 	509 	546
f 509 	545 	546
f 511 	510 	547
f 510 	546 	547
f 512 	511 	548
f 511 	547 	548
f 513 	512 	549
f 512 	548 	549
f 514 	513 	550
f 513 	549 	550
f 515 	514 	551
f 514 	550 	551
f 516 	515 	552
f 515 	551 	552
f 517 	516 	553
f 516 	552 	553
f 518 	517 	554
f 517 	553 	554
f 519 	518 	555
f 518 	554 	555
f 520 	519 	556
f 519 	555 	556
f 521 	520 	557
f 520 	556 	557
f 522 	521 	558
f 521 	557 	558
f 523 	522 	559
f 522 	558 	559
f 524 	523 	560
f 523 	559 	560
f 525 	524 	561
f 524 	560 	561
f 526 	525 	562
f 525 	561 	562
f 527 	526 	563
f 526 	562 	563
f 528 	527 	564
f 527 	563 	564
f 529 	528 	565
f 528 	564 	565
f 530 	529 	566
f 529 	565 	566
f 531 	530 	567
f 530 	566 	567
f 532 	531 	568
f 531 	567 	568
f 533 	532 	569
f 532 	568 	569
f 498 	533 	534
f 533 	569 	534
f 535 	534 	571
f 534 	570 	571
f 536 	535 	572
f 535 	571 	572
f 537 	536 	573
f 536 	572 	573
f 538 	537 	574
f 537 	573 	574
f 539 	538 	575
f 538 	574 	575
f 540 	539 	576
f 539 	575 	576
f 541 	540 	577
f 540 	576 	577
f 542 	541 	578
f 541 	577 	578
f 543 	542 	579
f 542 	578 	579
f 544 	543 	580
f 543 	579 	580
f 545 	544 	581
f 544 	580 	581
f 546 	545 	582
f 545 	581 	582
f 547 	546 	583
f 546 	582 	583
f 548 	547 	584
f 547 	583 	584
f 549 	548 	585
f 548 	584 	585
f 550 	549 	586
f 549 	585 	586
f 551 	550 	587
f 550 	586 	587
f 552 	551 	588
f 551 	587 	588
f 553 	552 	589
f 552 	588 	589
f 554 	553 	590
f 553 	589 	590
f 555 	554 	591
f 554 	590 	591
f 556 	555 	592
f 555 	591 	592
f 557 	556 	593
f 556 	592 	593
f 558 	557 	594
f 557 	593 	594
f 559 	558 	595
f 558 	594 	595
f 560 	559 	596
f 559 	595 	596
f 561 	560 	597
f 560 	596 	597
f 562 	561 	598
f 561 	597 	598
f 563 	562 	599
f 562 	598 	599
f 564 	563 	600
f 563 	599 	600
f 565 	564 	601
f 564 	600 	601
f 566 	565 	602
f 565 	601 	602
f 567 	566 	603
f 566 	602 	603
f 568 	567 	604
f 567 	603 	604
f 569 	568 	605
f 568 	604 	605
f 534 	569 	570
f 569 	605 	570
f 571 	570 	607
f 570 	606 	607
f 572 	571 	608
f 571 	607 	608
f 573 	572 	609
f 572 	608 	609
f 574 	573 	610
f 573 	609 	610
f 575 	574 	611
f 574 	610 	611
f 576 	575 	612
f 575 	611 	612
f 577 	576 	613
f 576 	612 	613
f 578 	577 	614
f 577 	613 	614
f 579 	578 	615
f 578 	614 	615
f 580 	579 	616
f 579 	615 	616
f 581 	580 	617
f 580 	616 	617
f 582 	581 	618
f 581 	617 	618
f 583 	582 	619
f 582 	618 	619
f 584 	583 	620
f 583 	619 	620
f 585 	584 	621
f 584 	620 	621
f 586 	585 	622
f 585 	621 	622
f 587 	586 	623
f 586 	622 	623
f 588 	587 	624
f 587 	623 	624
f 589 	588 	625
f 588 	624 	625
f 590 	589 	626
f 589 	625 	626
f 591 	590 	627
f 590 	626 	627
f 592 	591 	628
f 591 	627 	628
f 593 	592 	629
f 592 	628 	629
f 594 	593 	630
f 593 	629 	630
f 595 	594 	631
f 594 	630 	631
f 596 	595 	632
f 595 	631 	632
f 597 	596 	633
f 596 	632 	633
f 598 	597 	634
f 597 	633 	634
f 599 	598 	635
f 598 	634 	635
f 600 	599 	636
f 599 	635 	636
f 601 	600 	637
f 600 	636 	637
f 602 	601 	638
f 601 	637 	638
f 603 	602 	639
f 602 	638 	639
f 604 	603 	640
f 603 	639 	640
f 605 	604 	641
f 604 	640 	641
f 570 	605 	606
f 605 	641 	606
f 607 	606 	643
f 606 	642 	643
f 608 	607 	644
f 607 	643 	644
f 609 	608 	645
f 608 	644 	645
f 610 	609 	646
f 609 	645 	646
f 611 	610 	647
f 610 	646 	647
f 612 	611 	648
f 611 	647 	648
f 613 	612 	649
f 612 	648 	649
f 614 	613 	650
f 613 	649 	650
f 615 	614 	651
f 614 	650 	651
f 616 	615 	652
f 615 	651 	652
f 617 	616 	653
f 616 	652 	653
f 618 	617 	654
f 617 	653 	654
f 619 	618 	655
f 618 	654 	655
f 620 	619 	656
f 619 	655 	656
f 621 	620 	657
f 620 	656 	657
f 622 	621 	658
f 621 	657 	658
f 623 	622 	659
f 622 	658 	659
f 624 	623 	660
f 623 	659 	660
f 625 	624 	661
f 624 	660 	661
f 626 	625 	662
f 625 	661 	662
f 627 	626 	663
f 626 	662 	663
f 628 	627 	664
f 627 	663 	664
f 629 	628 	665
f 628 	664 	665
f 630 	629 	666
f 629 	665 	666
f 631 	630 	667
f 630 	666 	667
f 632 	631 	668
f 631 	667 	668
f 633 	632 	669
f 632 	668 	669
f 634 	633 	670
f 633 	669 	670
f 635 	634 	671
f 634 	670 	671
f 636 	635 	672
f 635 	671 	672
f 637 	636 	673
f 636 	672 	673
f 638 	637 	674
f 637 	673 	674
f 639 	638 	675
f 638 	674 	675
f 640 	639 	676
f 639 	675 	676
f 641 	640 	677
f 640 	676 	677
f 606 	641 	642
f 641 	677 	642
f 643 	642 	679
f 642 	678 	679
f 644 	643 	680
f 643 	679 	680
f 645 	644 	681
f 644 	680 	681
f 646 	645 	682
f 645 	681 	682
f 647 	646 	683
f 646 	682 	683
f 648 	647 	684
f 647 	683 	684
f 649 	648 	685
f 648 	684 	685
f 650 	649 	686
f 649 	685 	686
f 651 	650 	687
f 650 	686 	687
f 652 	651 	688
f 651 	687 	688
f 653 	652 	689
f 652 	688 	689
f 654 	653 	690
f 653 	689 	690
f 655 	654 	691
f 654 	690 	691
f 656 	655 	692
f 655 	691 	692
f 657 	656 	693
f 656 	692 	693
f 658 	657 	694
f 657 	693 	694
f 659 	658 	695
f 658 	694 	695
f 660 	659 	696
f 659 	695 	696
f 661 	660 	697
f 660 	696 	697
f 662 	661 	698
f 661 	697 	698
f 663 	662 	699
f 662 	698 	699
f 664 	663 	700
f 663 	699 	700
f 665 	664 	701
f 664 	700 	701
f 666 	665 	702
f 665 	701 	702
f 667 	666 	703
f 666 	702 	703
f 668 	667 	704
f 667 	703 	704
f 669 	668 	705
f 668 	704 	705
f 670 	669 	706
f 669 	705 	706
f 671 	670 	707
f 670 	706 	707
f 672 	671 	708
f 671 	707 	708
f 673 	672 	709
f 672 	708 	709
f 674 	673 	710
f 673 	709 	710
f 675 	674 	711
f 674 	710 	711
f 676 	675 	712
f 675 	711 	712
f 677 	676 	713
f 676 	712 	713
f 642 	677 	678
f 677 	713 	678
f 679 	678 	715
f 678 	714 	715
f 680 	679 	716
f 679 	715 	716
f 681 	680 	717
f 680 	716 	717
f 682 	681 	718
f 681 	717 	718
f 683 	682 	719
f 682 	718 	719
f 684 	683 	720
f 683 	719 	720
f 685 	684 	721
f 684 	720 	721
f 686 	685 	722
f 685 	721 	722
f 687 	686 	723
f 686 	722 	723
f 688 	687 	724
f 687 	723 	724
f 689 	688 	725
f 688 	724 	725
f 690 	689 	726
f 689 	725 	726
f 691 	690 	727
f 690 	726 	727
f 692 	691 	728
f 691 	727 	728
f 693 	692 	729
f 692 	728 	729
f 694 	693 	730
f 693 	729 	730
f 695 	694 	731
f 694 	730 	731
f 696 	695 	732
f 695 	731 	732
f 697 	696 	733
f 696 	732 	733
f 698 	697 	734
f 697 	733 	734
f 699 	698 	735
f 698 	734 	735
f 700 	699 	736
f 699 	735 	736
f 701 	700 	737
f 700 	736 	737
f 702 	701 	738
f 701 	737 	738
f 703 	702 	739
f 702 	738 	739
f 704 	703 	740
f 703 	739 	740
f 705 	704 	741
f 704 	740 	741
f 706 	705 	742
f 705 	741 	742
f 707 	706 	743
f 706 	742 	743
f 708 	707 	744
f 707 	743 	744
f 709 	708 	745
f 708 	744 	745
f 710 	709 	746
f 709 	745 	746
f 711 	710 	747
f 710 	746 	747
f 712 	711 	748
f 711 	747 	748
f 713 	712 	749
f 712 	748 	749
f 678 	713 	714
f 713 	749 	714
f 715 	714 	751
f 714 	750 	751
f 716 	715 	752
f 715 	751 	752
f 717 	716 	753
f 716 	752 	753
f 718 	717 	754
f 717 	753 	754
f 719 	718 	755
f 718 	754 	755
f 720 	719 	756
f 719 	755 	756
f 721 	720 	757
f 720 	756 	757
f 722 	721 	758
f 721 	757 	758
f 723 	722 	759
f 722 	758 	759
f 724 	723 	760
f 723 	759 	760
f 725 	724 	761
f 724 	760 	761
f 726 	725 	762
f 725 	761 	762
f 727 	726 	763
f 726 	762 	763
f 728 	727 	764
f 727 	763 	764
f 729 	728 	765
f 728 	764 	765
f 730 	729 	766
f 729 	765 	766
f 731 	730 	767
f 730 	766 	767
f 732 	731 	768
f 731 	767 	768
f 733 	732 	769
f 732 	768 	769
f 734 	733 	770
f 733 	769 	770
f 735 	734 	771
f 734 	770 	771
f 736 	735 	772
f 735 	771 	772
f 737 	736 	773
f 736 	772 	773
f 738 	737 	774
f 737 	773 	774
f 739 	738 	775
f 738 	774 	775
f 740 	739 	776
f 739 	775 	776
f 741 	740 	777
f 740 	776 	777
f 742 	741 	778
f 741 	777 	778
f 743 	742 	779
f 742 	778 	779
f 744 	743 	780
f 743 	779 	780
f 745 	744 	781
f 744 	780 	781
f 746 	745 	782
f 745 	781 	782
f 747 	746 	783
f 746 	782 	783
f 748 	747 	784
f 747 	783 	784
f 749 	748 	785
f 748 	784 	785
f 714 	749 	750
f 749 	785 	750
f 751 	750 	786
f 752 	751 	786
f 753 	752 	786
f 754 	753 	786
f 755 	754 	786
f 756 	755 	786
f 757 	756 	786
f 758 	757 	786
f 759 	758 	786
f 760 	759 	786
f 761 	760 	786
f 762 	761 	786
f 763 	762 	786
f 764 	763 	786
f 765 	764 	786
f 766 	765 	786
f 767 	766 	786
f 768 	767 	786
f 769 	768 	786
f 770 	769 	786
f 771 	770 	786
f 772 	771 	786
f 773 	772 	786
f 774 	773 	786
f 775 	774 	786
f 776 	775 	786
f 777 	776 	786
f 778 	777 	786
f 779 	778 	786
f 780 	779 	786
f 781 	780 	786
f 782 	781 	786
f 783 	782 	786
f 784 	783 	786
f 785 	784 	786
f 750 	785 	786
# 1296 faces

 #end of obj_1

o obj_2
v -6 		-22 		48
v -3 		-22 		52
v 0 		-22 		48
v 0 		-27 		48
v -3 		-27 		52
v -6 		-27 		48
# 6 vertices

g group_2_2829873

usemtl color_2829873
s 0

f 787 	788 	789
f 790 	791 	792
f 787 	789 	792
f 789 	790 	792
f 789 	788 	790
f 788 	791 	790
f 788 	787 	791
f 787 	792 	791
# 8 faces

 #end of obj_2

o obj_3
v -16 		-22 		48
v -13 		-22 		52
v -10 		-22 		48
v -10 		-27 		48
v -13 		-27 		52
v -16 		-27 		48
# 6 vertices

g group_3_2829873

usemtl color_2829873
s 0

f 793 	794 	795
f 796 	797 	798
f 793 	795 	798
f 795 	796 	798
f 795 	794 	796
f 794 	797 	796
f 794 	793 	797
f 793 	798 	797
# 8 faces

 #end of obj_3

o obj_4
v -2 		-22 		35
v -2.0265 		-22 		35.5881
v -2.1057 		-22 		36.1705
v -2.2368 		-22 		36.7417
v -2.4187 		-22 		37.2961
v -2.6494 		-22 		37.8284
v -2.9269 		-22 		38.3334
v -3.2484 		-22 		38.8064
v -3.6109 		-22 		39.2426
v -4.0108 		-22 		39.6381
v -4.4444 		-22 		39.9888
v -4.9073 		-22 		40.2915
v -5.3952 		-22 		40.5433
v -5.9034 		-22 		40.7416
v -6.427 		-22 		40.8847
v -6.9609 		-22 		40.9711
v -7.5 		-22 		41
v -8.0391 		-22 		40.9711
v -8.573 		-22 		40.8847
v -9.0966 		-22 		40.7416
v -9.6048 		-22 		40.5433
v -10.0927 		-22 		40.2915
v -10.5556 		-22 		39.9888
v -10.9892 		-22 		39.6381
v -11.3891 		-22 		39.2426
v -11.7516 		-22 		38.8064
v -12.0731 		-22 		38.3334
v -12.3506 		-22 		37.8284
v -12.5813 		-22 		37.2961
v -12.7632 		-22 		36.7417
v -12.8943 		-22 		36.1705
v -12.9735 		-22 		35.5881
v -13 		-22 		35
v -2 		-27 		35
v -2.0265 		-27 		35.5881
v -2.1057 		-27 		36.1705
v -2.2368 		-27 		36.7417
v -2.4187 		-27 		37.2961
v -2.6494 		-27 		37.8284
v -2.9269 		-27 		38.3334
v -3.2484 		-27 		38.8064
v -3.6109 		-27 		39.2426
v -4.0108 		-27 		39.6381
v -4.4444 		-27 		39.9888
v -4.9073 		-27 		40.2915
v -5.3952 		-27 		40.5433
v -5.9034 		-27 		40.7416
v -6.427 		-27 		40.8847
v -6.9609 		-27 		40.9711
v -7.5 		-27 		41
v -8.0391 		-27 		40.9711
v -8.573 		-27 		40.8847
v -9.0966 		-27 		40.7416
v -9.6048 		-27 		40.5433
v -10.0927 		-27 		40.2915
v -10.5556 		-27 		39.9888
v -10.9892 		-27 		39.6381
v -11.3891 		-27 		39.2426
v -11.7516 		-27 		38.8064
v -12.0731 		-27 		38.3334
v -12.3506 		-27 		37.8284
v -12.5813 		-27 		37.2961
v -12.7632 		-27 		36.7417
v -12.8943 		-27 		36.1705
v -12.9735 		-27 		35.5881
v -13 		-27 		35
v -7.5 		-22 		35
v -7.5 		-27 		35
# 68 vertices

g group_4_2829873

usemtl color_2829873
s 0

f 833 	832 	800
f 832 	799 	800
f 834 	833 	801
f 833 	800 	801
f 835 	834 	802
f 834 	801 	802
f 836 	835 	803
f 835 	802 	803
f 837 	836 	804
f 836 	803 	804
f 838 	837 	805
f 837 	804 	805
f 839 	838 	806
f 838 	805 	806
f 840 	839 	807
f 839 	806 	807
f 841 	840 	808
f 840 	807 	808
f 842 	841 	809
f 841 	808 	809
f 843 	842 	810
f 842 	809 	810
f 844 	843 	811
f 843 	810 	811
f 845 	844 	812
f 844 	811 	812
f 846 	845 	813
f 845 	812 	813
f 847 	846 	814
f 846 	813 	814
f 848 	847 	815
f 847 	814 	815
f 849 	848 	816
f 848 	815 	816
f 850 	849 	817
f 849 	816 	817
f 851 	850 	818
f 850 	817 	818
f 852 	851 	819
f 851 	818 	819
f 853 	852 	820
f 852 	819 	820
f 854 	853 	821
f 853 	820 	821
f 855 	854 	822
f 854 	821 	822
f 856 	855 	823
f 855 	822 	823
f 857 	856 	824
f 856 	823 	824
f 858 	857 	825
f 857 	824 	825
f 859 	858 	826
f 858 	825 	826
f 860 	859 	827
f 859 	826 	827
f 861 	860 	828
f 860 	827 	828
f 862 	861 	829
f 861 	828 	829
f 863 	862 	830
f 862 	829 	830
f 864 	863 	831
f 863 	830 	831
f 800 	799 	865
f 801 	800 	865
f 802 	801 	865
f 803 	802 	865
f 804 	803 	865
f 805 	804 	865
f 806 	805 	865
f 807 	806 	865
f 808 	807 	865
f 809 	808 	865
f 810 	809 	865
f 811 	810 	865
f 812 	811 	865
f 813 	812 	865
f 814 	813 	865
f 815 	814 	865
f 816 	815 	865
f 817 	816 	865
f 818 	817 	865
f 819 	818 	865
f 820 	819 	865
f 821 	820 	865
f 822 	821 	865
f 823 	822 	865
f 824 	823 	865
f 825 	824 	865
f 826 	825 	865
f 827 	826 	865
f 828 	827 	865
f 829 	828 	865
f 830 	829 	865
f 831 	830 	865
f 832 	833 	866
f 833 	834 	866
f 834 	835 	866
f 835 	836 	866
f 836 	837 	866
f 837 	838 	866
f 838 	839 	866
f 839 	840 	866
f 840 	841 	866
f 841 	842 	866
f 842 	843 	866
f 843 	844 	866
f 844 	845 	866
f 845 	846 	866
f 846 	847 	866
f 847 	848 	866
f 848 	849 	866
f 849 	850 	866
f 850 	851 	866
f 851 	852 	866
f 852 	853 	866
f 853 	854 	866
f 854 	855 	866
f 855 	856 	866
f 856 	857 	866
f 857 	858 	866
f 858 	859 	866
f 859 	860 	866
f 860 	861 	866
f 861 	862 	866
f 862 	863 	866
f 863 	864 	866
f 831 	799 	832
f 831 	832 	864
# 130 faces

 #end of obj_4

o obj_5
v -5 		2 		17
v -8 		2 		14
v -11 		2 		17
v -11 		-27 		17
v -8 		-27 		14
v -5 		-27 		17
# 6 vertices

g group_5_16448250

usemtl color_16448250
s 0

f 867 	868 	869
f 870 	871 	872
f 867 	869 	872
f 869 	870 	872
f 869 	868 	870
f 868 	871 	870
f 868 	867 	871
f 867 	872 	871
# 8 faces

 #end of obj_5

o obj_6
v 0.3205 		-0.2518 		17
v -2.4511 		0.8963 		14
v -5.2227 		2.0443 		17
v -16.3205 		-24.7482 		17
v -13.5489 		-25.8963 		14
v -10.7773 		-27.0443 		17
# 6 vertices

g group_6_16448250

usemtl color_16448250
s 0

f 873 	874 	875
f 876 	877 	878
f 873 	875 	878
f 875 	876 	878
f 875 	874 	876
f 874 	877 	876
f 874 	873 	877
f 873 	878 	877
# 8 faces

 #end of obj_6

o obj_7
v -11.409 		1.9093 		17
v -14.128 		0.6415 		14
v -16.8469 		-0.6264 		17
v -4.591 		-26.9093 		17
v -1.872 		-25.6415 		14
v 0.8469 		-24.3736 		17
# 6 vertices

g group_7_16448250

usemtl color_16448250
s 0

f 879 	880 	881
f 882 	883 	884
f 879 	881 	884
f 881 	882 	884
f 881 	880 	882
f 880 	883 	882
f 880 	879 	883
f 879 	884 	883
# 8 faces

 #end of obj_7

o obj_8
v -17.1793 		-0.8814 		17
v -19.1076 		-3.1796 		14
v -21.036 		-5.4777 		17
v 1.1793 		-24.1186 		17
v 3.1076 		-21.8204 		14
v 5.036 		-19.5223 		17
# 6 vertices

g group_8_16448250

usemtl color_16448250
s 0

f 885 	886 	887
f 888 	889 	890
f 885 	887 	890
f 887 	888 	890
f 887 	886 	888
f 886 	889 	888
f 886 	885 	889
f 885 	890 	889
# 8 faces

 #end of obj_8

o obj_9
v 4.6506 		-4.8051 		17
v 2.6046 		-2.611 		14
v 0.5586 		-0.417 		17
v -20.6506 		-20.1949 		17
v -18.6046 		-22.389 		14
v -16.5586 		-24.583 		17
# 6 vertices

g group_9_16448250

usemtl color_16448250
s 0

f 891 	892 	893
f 894 	895 	896
f 891 	893 	896
f 893 	894 	896
f 893 	892 	894
f 892 	895 	894
f 892 	891 	895
f 891 	896 	895
# 8 faces

 #end of obj_9

o obj_10
v -21.1114 		-5.6195 		17
v -21.9383 		-8.5033 		14
v -22.7652 		-11.387 		17
v 5.1114 		-19.3805 		17
v 5.9383 		-16.4967 		14
v 6.7652 		-13.613 		17
# 6 vertices

g group_10_16448250

usemtl color_16448250
s 0

f 897 	898 	899
f 900 	901 	902
f 897 	899 	902
f 899 	900 	902
f 899 	898 	900
f 898 	901 	900
f 898 	897 	901
f 897 	902 	901
# 8 faces

 #end of obj_10

o obj_11
v 6.7174 		-10.8724 		17
v 5.7903 		-8.0193 		14
v 4.8633 		-5.1661 		17
v -22.7174 		-14.1276 		17
v -21.7903 		-16.9807 		14
v -20.8633 		-19.8339 		17
# 6 vertices

g group_11_16448250

usemtl color_16448250
s 0

f 903 	904 	905
f 906 	907 	908
f 903 	905 	908
f 905 	906 	908
f 905 	904 	906
f 904 	907 	906
f 904 	903 	907
f 903 	908 	907
# 8 faces

 #end of obj_11

o obj_12
v 6.4751 		-10.0043 		34.8828
v 6.4289 		-10 		34.9289
v 6.4289 		-10.5 		34.9289
v 6.5204 		-10.017 		34.8374
v 6.5642 		-10.0381 		34.7936
v 6.6057 		-10.067 		34.7522
v 6.6442 		-10.1033 		34.7137
v 6.6789 		-10.1464 		34.6789
v 6.7094 		-10.1956 		34.6484
v 6.7351 		-10.25 		34.6227
v 6.7556 		-10.3087 		34.6023
v 6.7704 		-10.3706 		34.5874
v 6.7795 		-10.4347 		34.5784
v 6.7825 		-10.5 		34.5754
v 6.7795 		-10.5653 		34.5784
v 6.7704 		-10.6294 		34.5874
v 6.7556 		-10.6913 		34.6023
v 6.7351 		-10.75 		34.6227
v 6.7094 		-10.8044 		34.6484
v 6.6789 		-10.8536 		34.6789
v 6.6442 		-10.8967 		34.7137
v 6.6057 		-10.933 		34.7522
v 6.5642 		-10.9619 		34.7936
v 6.5204 		-10.983 		34.8374
v 6.4751 		-10.9957 		34.8828
v 6.4289 		-11 		34.9289
v 6.3828 		-10.9957 		34.9751
v 6.3374 		-10.983 		35.0204
v 6.2936 		-10.9619 		35.0642
v 6.2522 		-10.933 		35.1057
v 6.2137 		-10.8967 		35.1442
v 6.1789 		-10.8536 		35.1789
v 6.1484 		-10.8044 		35.2094
v 6.1227 		-10.75 		35.2351
v 6.1023 		-10.6913 		35.2556
v 6.0874 		-10.6294 		35.2704
v 6.0784 		-10.5653 		35.2795
v 6.0754 		-10.5 		35.2825
v 6.0784 		-10.4347 		35.2795
v 6.0874 		-10.3706 		35.2704
v 6.1023 		-10.3087 		35.2556
v 6.1227 		-10.25 		35.2351
v 6.1484 		-10.1956 		35.2094
v 6.1789 		-10.1464 		35.1789
v 6.2137 		-10.1033 		35.1442
v 6.2522 		-10.067 		35.1057
v 6.2936 		-10.0381 		35.0642
v 6.3374 		-10.017 		35.0204
v 6.3828 		-10.0043 		34.9751
v 20.5711 		-10 		49.0711
v 20.6172 		-10.0043 		49.0249
v 20.5711 		-10.5 		49.0711
v 20.6626 		-10.017 		48.9796
v 20.7064 		-10.0381 		48.9358
v 20.7478 		-10.067 		48.8943
v 20.7863 		-10.1033 		48.8558
v 20.8211 		-10.1464 		48.8211
v 20.8516 		-10.1956 		48.7906
v 20.8773 		-10.25 		48.7649
v 20.8977 		-10.3087 		48.7444
v 20.9126 		-10.3706 		48.7296
v 20.9216 		-10.4347 		48.7205
v 20.9246 		-10.5 		48.7175
v 20.9216 		-10.5653 		48.7205
v 20.9126 		-10.6294 		48.7296
v 20.8977 		-10.6913 		48.7444
v 20.8773 		-10.75 		48.7649
v 20.8516 		-10.8044 		48.7906
v 20.8211 		-10.8536 		48.8211
v 20.7863 		-10.8967 		48.8558
v 20.7478 		-10.933 		48.8943
v 20.7064 		-10.9619 		48.9358
v 20.6626 		-10.983 		48.9796
v 20.6172 		-10.9957 		49.0249
v 20.5711 		-11 		49.0711
v 20.5249 		-10.9957 		49.1172
v 20.4796 		-10.983 		49.1626
v 20.4358 		-10.9619 		49.2064
v 20.3943 		-10.933 		49.2478
v 20.3558 		-10.8967 		49.2863
v 20.3211 		-10.8536 		49.3211
v 20.2906 		-10.8044 		49.3516
v 20.2649 		-10.75 		49.3773
v 20.2444 		-10.6913 		49.3977
v 20.2296 		-10.6294 		49.4126
v 20.2205 		-10.5653 		49.4216
v 20.2175 		-10.5 		49.4246
v 20.2205 		-10.4347 		49.4216
v 20.2296 		-10.3706 		49.4126
v 20.2444 		-10.3087 		49.3977
v 20.2649 		-10.25 		49.3773
v 20.2906 		-10.1956 		49.3516
v 20.3211 		-10.1464 		49.3211
v 20.3558 		-10.1033 		49.2863
v 20.3943 		-10.067 		49.2478
v 20.4358 		-10.0381 		49.2064
v 20.4796 		-10.017 		49.1626
v 20.5249 		-10.0043 		49.1172
# 98 vertices

g group_12_16448250

usemtl color_16448250
s 0

f 910 	909 	911
f 909 	912 	911
f 912 	913 	911
f 913 	914 	911
f 914 	915 	911
f 915 	916 	911
f 916 	917 	911
f 917 	918 	911
f 918 	919 	911
f 919 	920 	911
f 920 	921 	911
f 921 	922 	911
f 922 	923 	911
f 923 	924 	911
f 924 	925 	911
f 925 	926 	911
f 926 	927 	911
f 927 	928 	911
f 928 	929 	911
f 929 	930 	911
f 930 	931 	911
f 931 	932 	911
f 932 	933 	911
f 933 	934 	911
f 934 	935 	911
f 935 	936 	911
f 936 	937 	911
f 937 	938 	911
f 938 	939 	911
f 939 	940 	911
f 940 	941 	911
f 941 	942 	911
f 942 	943 	911
f 943 	944 	911
f 944 	945 	911
f 945 	946 	911
f 946 	947 	911
f 947 	948 	911
f 948 	949 	911
f 949 	950 	911
f 950 	951 	911
f 951 	952 	911
f 952 	953 	911
f 953 	954 	911
f 954 	955 	911
f 955 	956 	911
f 956 	957 	911
f 957 	910 	911
f 959 	958 	960
f 961 	959 	960
f 962 	961 	960
f 963 	962 	960
f 964 	963 	960
f 965 	964 	960
f 966 	965 	960
f 967 	966 	960
f 968 	967 	960
f 969 	968 	960
f 970 	969 	960
f 971 	970 	960
f 972 	971 	960
f 973 	972 	960
f 974 	973 	960
f 975 	974 	960
f 976 	975 	960
f 977 	976 	960
f 978 	977 	960
f 979 	978 	960
f 980 	979 	960
f 981 	980 	960
f 982 	981 	960
f 983 	982 	960
f 984 	983 	960
f 985 	984 	960
f 986 	985 	960
f 987 	986 	960
f 988 	987 	960
f 989 	988 	960
f 990 	989 	960
f 991 	990 	960
f 992 	991 	960
f 993 	992 	960
f 994 	993 	960
f 995 	994 	960
f 996 	995 	960
f 997 	996 	960
f 998 	997 	960
f 999 	998 	960
f 1000 	999 	960
f 1001 	1000 	960
f 1002 	1001 	960
f 1003 	1002 	960
f 1004 	1003 	960
f 1005 	1004 	960
f 1006 	1005 	960
f 958 	1006 	960
f 909 	910 	909
f 912 	909 	912
f 913 	912 	913
f 914 	913 	914
f 915 	914 	915
f 916 	915 	916
f 917 	916 	917
f 918 	917 	918
f 919 	918 	919
f 920 	919 	920
f 921 	920 	921
f 922 	921 	922
f 923 	922 	923
f 924 	923 	924
f 925 	924 	925
f 926 	925 	926
f 927 	926 	927
f 928 	927 	928
f 929 	928 	929
f 930 	929 	930
f 931 	930 	931
f 932 	931 	932
f 933 	932 	933
f 934 	933 	934
f 935 	934 	935
f 936 	935 	936
f 937 	936 	937
f 938 	937 	938
f 939 	938 	939
f 940 	939 	940
f 941 	940 	941
f 942 	941 	942
f 943 	942 	943
f 944 	943 	944
f 945 	944 	945
f 946 	945 	946
f 947 	946 	947
f 948 	947 	948
f 949 	948 	949
f 950 	949 	950
f 951 	950 	951
f 952 	951 	952
f 953 	952 	953
f 954 	953 	954
f 955 	954 	955
f 956 	955 	956
f 957 	956 	957
f 910 	957 	910
f 909 	910 	959
f 959 	910 	958
f 912 	909 	961
f 961 	909 	959
f 913 	912 	962
f 962 	912 	961
f 914 	913 	963
f 963 	913 	962
f 915 	914 	964
f 964 	914 	963
f 916 	915 	965
f 965 	915 	964
f 917 	916 	966
f 966 	916 	965
f 918 	917 	967
f 967 	917 	966
f 919 	918 	968
f 968 	918 	967
f 920 	919 	969
f 969 	919 	968
f 921 	920 	970
f 970 	920 	969
f 922 	921 	971
f 971 	921 	970
f 923 	922 	972
f 972 	922 	971
f 924 	923 	973
f 973 	923 	972
f 925 	924 	974
f 974 	924 	973
f 926 	925 	975
f 975 	925 	974
f 927 	926 	976
f 976 	926 	975
f 928 	927 	977
f 977 	927 	976
f 929 	928 	978
f 978 	928 	977
f 930 	929 	979
f 979 	929 	978
f 931 	930 	980
f 980 	930 	979
f 932 	931 	981
f 981 	931 	980
f 933 	932 	982
f 982 	932 	981
f 934 	933 	983
f 983 	933 	982
f 935 	934 	984
f 984 	934 	983
f 936 	935 	985
f 985 	935 	984
f 937 	936 	986
f 986 	936 	985
f 938 	937 	987
f 987 	937 	986
f 939 	938 	988
f 988 	938 	987
f 940 	939 	989
f 989 	939 	988
f 941 	940 	990
f 990 	940 	989
f 942 	941 	991
f 991 	941 	990
f 943 	942 	992
f 992 	942 	991
f 944 	943 	993
f 993 	943 	992
f 945 	944 	994
f 994 	944 	993
f 946 	945 	995
f 995 	945 	994
f 947 	946 	996
f 996 	946 	995
f 948 	947 	997
f 997 	947 	996
f 949 	948 	998
f 998 	948 	997
f 950 	949 	999
f 999 	949 	998
f 951 	950 	1000
f 1000 	950 	999
f 952 	951 	1001
f 1001 	951 	1000
f 953 	952 	1002
f 1002 	952 	1001
f 954 	953 	1003
f 1003 	953 	1002
f 955 	954 	1004
f 1004 	954 	1003
f 956 	955 	1005
f 1005 	955 	1004
f 957 	956 	1006
f 1006 	956 	1005
f 910 	957 	958
f 958 	957 	1006
f 959 	958 	959
f 961 	959 	961
f 962 	961 	962
f 963 	962 	963
f 964 	963 	964
f 965 	964 	965
f 966 	965 	966
f 967 	966 	967
f 968 	967 	968
f 969 	968 	969
f 970 	969 	970
f 971 	970 	971
f 972 	971 	972
f 973 	972 	973
f 974 	973 	974
f 975 	974 	975
f 976 	975 	976
f 977 	976 	977
f 978 	977 	978
f 979 	978 	979
f 980 	979 	980
f 981 	980 	981
f 982 	981 	982
f 983 	982 	983
f 984 	983 	984
f 985 	984 	985
f 986 	985 	986
f 987 	986 	987
f 988 	987 	988
f 989 	988 	989
f 990 	989 	990
f 991 	990 	991
f 992 	991 	992
f 993 	992 	993
f 994 	993 	994
f 995 	994 	995
f 996 	995 	996
f 997 	996 	997
f 998 	997 	998
f 999 	998 	999
f 1000 	999 	1000
f 1001 	1000 	1001
f 1002 	1001 	1002
f 1003 	1002 	1003
f 1004 	1003 	1004
f 1005 	1004 	1005
f 1006 	1005 	1006
f 958 	1006 	958
# 288 faces

 #end of obj_12

o obj_13
v -20.9582 		-13.0043 		34.9751
v -21.0043 		-13 		34.9289
v -21.0043 		-13.5 		34.9289
v -20.9128 		-13.017 		35.0204
v -20.869 		-13.0381 		35.0642
v -20.8275 		-13.067 		35.1057
v -20.7891 		-13.1033 		35.1442
v -20.7543 		-13.1464 		35.1789
v -20.7238 		-13.1956 		35.2094
v -20.6981 		-13.25 		35.2351
v -20.6777 		-13.3087 		35.2556
v -20.6628 		-13.3706 		35.2704
v -20.6538 		-13.4347 		35.2795
v -20.6508 		-13.5 		35.2825
v -20.6538 		-13.5653 		35.2795
v -20.6628 		-13.6294 		35.2704
v -20.6777 		-13.6913 		35.2556
v -20.6981 		-13.75 		35.2351
v -20.7238 		-13.8044 		35.2094
v -20.7543 		-13.8536 		35.1789
v -20.7891 		-13.8967 		35.1442
v -20.8275 		-13.933 		35.1057
v -20.869 		-13.9619 		35.0642
v -20.9128 		-13.983 		35.0204
v -20.9582 		-13.9957 		34.9751
v -21.0043 		-14 		34.9289
v -21.0505 		-13.9957 		34.8828
v -21.0958 		-13.983 		34.8374
v -21.1396 		-13.9619 		34.7936
v -21.1811 		-13.933 		34.7522
v -21.2195 		-13.8967 		34.7137
v -21.2543 		-13.8536 		34.6789
v -21.2848 		-13.8044 		34.6484
v -21.3105 		-13.75 		34.6227
v -21.331 		-13.6913 		34.6023
v -21.3458 		-13.6294 		34.5874
v -21.3548 		-13.5653 		34.5784
v -21.3579 		-13.5 		34.5754
v -21.3548 		-13.4347 		34.5784
v -21.3458 		-13.3706 		34.5874
v -21.331 		-13.3087 		34.6023
v -21.3105 		-13.25 		34.6227
v -21.2848 		-13.1956 		34.6484
v -21.2543 		-13.1464 		34.6789
v -21.2195 		-13.1033 		34.7137
v -21.1811 		-13.067 		34.7522
v -21.1396 		-13.0381 		34.7936
v -21.0958 		-13.017 		34.8374
v -21.0505 		-13.0043 		34.8828
v -35.1464 		-13 		49.0711
v -35.1003 		-13.0043 		49.1172
v -35.1464 		-13.5 		49.0711
v -35.0549 		-13.017 		49.1626
v -35.0111 		-13.0381 		49.2064
v -34.9697 		-13.067 		49.2478
v -34.9312 		-13.1033 		49.2863
v -34.8964 		-13.1464 		49.3211
v -34.866 		-13.1956 		49.3516
v -34.8403 		-13.25 		49.3773
v -34.8198 		-13.3087 		49.3977
v -34.8049 		-13.3706 		49.4126
v -34.7959 		-13.4347 		49.4216
v -34.7929 		-13.5 		49.4246
v -34.7959 		-13.5653 		49.4216
v -34.8049 		-13.6294 		49.4126
v -34.8198 		-13.6913 		49.3977
v -34.8403 		-13.75 		49.3773
v -34.866 		-13.8044 		49.3516
v -34.8964 		-13.8536 		49.3211
v -34.9312 		-13.8967 		49.2863
v -34.9697 		-13.933 		49.2478
v -35.0111 		-13.9619 		49.2064
v -35.0549 		-13.983 		49.1626
v -35.1003 		-13.9957 		49.1172
v -35.1464 		-14 		49.0711
v -35.1926 		-13.9957 		49.0249
v -35.238 		-13.983 		48.9796
v -35.2817 		-13.9619 		48.9358
v -35.3232 		-13.933 		48.8943
v -35.3617 		-13.8967 		48.8558
v -35.3964 		-13.8536 		48.8211
v -35.4269 		-13.8044 		48.7906
v -35.4526 		-13.75 		48.7649
v -35.4731 		-13.6913 		48.7444
v -35.488 		-13.6294 		48.7296
v -35.497 		-13.5653 		48.7205
v -35.5 		-13.5 		48.7175
v -35.497 		-13.4347 		48.7205
v -35.488 		-13.3706 		48.7296
v -35.4731 		-13.3087 		48.7444
v -35.4526 		-13.25 		48.7649
v -35.4269 		-13.1956 		48.7906
v -35.3964 		-13.1464 		48.8211
v -35.3617 		-13.1033 		48.8558
v -35.3232 		-13.067 		48.8943
v -35.2817 		-13.0381 		48.9358
v -35.238 		-13.017 		48.9796
v -35.1926 		-13.0043 		49.0249
# 98 vertices

g group_13_16448250

usemtl color_16448250
s 0

f 1008 	1007 	1009
f 1007 	1010 	1009
f 1010 	1011 	1009
f 1011 	1012 	1009
f 1012 	1013 	1009
f 1013 	1014 	1009
f 1014 	1015 	1009
f 1015 	1016 	1009
f 1016 	1017 	1009
f 1017 	1018 	1009
f 1018 	1019 	1009
f 1019 	1020 	1009
f 1020 	1021 	1009
f 1021 	1022 	1009
f 1022 	1023 	1009
f 1023 	1024 	1009
f 1024 	1025 	1009
f 1025 	1026 	1009
f 1026 	1027 	1009
f 1027 	1028 	1009
f 1028 	1029 	1009
f 1029 	1030 	1009
f 1030 	1031 	1009
f 1031 	1032 	1009
f 1032 	1033 	1009
f 1033 	1034 	1009
f 1034 	1035 	1009
f 1035 	1036 	1009
f 1036 	1037 	1009
f 1037 	1038 	1009
f 1038 	1039 	1009
f 1039 	1040 	1009
f 1040 	1041 	1009
f 1041 	1042 	1009
f 1042 	1043 	1009
f 1043 	1044 	1009
f 1044 	1045 	1009
f 1045 	1046 	1009
f 1046 	1047 	1009
f 1047 	1048 	1009
f 1048 	1049 	1009
f 1049 	1050 	1009
f 1050 	1051 	1009
f 1051 	1052 	1009
f 1052 	1053 	1009
f 1053 	1054 	1009
f 1054 	1055 	1009
f 1055 	1008 	1009
f 1057 	1056 	1058
f 1059 	1057 	1058
f 1060 	1059 	1058
f 1061 	1060 	1058
f 1062 	1061 	1058
f 1063 	1062 	1058
f 1064 	1063 	1058
f 1065 	1064 	1058
f 1066 	1065 	1058
f 1067 	1066 	1058
f 1068 	1067 	1058
f 1069 	1068 	1058
f 1070 	1069 	1058
f 1071 	1070 	1058
f 1072 	1071 	1058
f 1073 	1072 	1058
f 1074 	1073 	1058
f 1075 	1074 	1058
f 1076 	1075 	1058
f 1077 	1076 	1058
f 1078 	1077 	1058
f 1079 	1078 	1058
f 1080 	1079 	1058
f 1081 	1080 	1058
f 1082 	1081 	1058
f 1083 	1082 	1058
f 1084 	1083 	1058
f 1085 	1084 	1058
f 1086 	1085 	1058
f 1087 	1086 	1058
f 1088 	1087 	1058
f 1089 	1088 	1058
f 1090 	1089 	1058
f 1091 	1090 	1058
f 1092 	1091 	1058
f 1093 	1092 	1058
f 1094 	1093 	1058
f 1095 	1094 	1058
f 1096 	1095 	1058
f 1097 	1096 	1058
f 1098 	1097 	1058
f 1099 	1098 	1058
f 1100 	1099 	1058
f 1101 	1100 	1058
f 1102 	1101 	1058
f 1103 	1102 	1058
f 1104 	1103 	1058
f 1056 	1104 	1058
f 1007 	1008 	1007
f 1010 	1007 	1010
f 1011 	1010 	1011
f 1012 	1011 	1012
f 1013 	1012 	1013
f 1014 	1013 	1014
f 1015 	1014 	1015
f 1016 	1015 	1016
f 1017 	1016 	1017
f 1018 	1017 	1018
f 1019 	1018 	1019
f 1020 	1019 	1020
f 1021 	1020 	1021
f 1022 	1021 	1022
f 1023 	1022 	1023
f 1024 	1023 	1024
f 1025 	1024 	1025
f 1026 	1025 	1026
f 1027 	1026 	1027
f 1028 	1027 	1028
f 1029 	1028 	1029
f 1030 	1029 	1030
f 1031 	1030 	1031
f 1032 	1031 	1032
f 1033 	1032 	1033
f 1034 	1033 	1034
f 1035 	1034 	1035
f 1036 	1035 	1036
f 1037 	1036 	1037
f 1038 	1037 	1038
f 1039 	1038 	1039
f 1040 	1039 	1040
f 1041 	1040 	1041
f 1042 	1041 	1042
f 1043 	1042 	1043
f 1044 	1043 	1044
f 1045 	1044 	1045
f 1046 	1045 	1046
f 1047 	1046 	1047
f 1048 	1047 	1048
f 1049 	1048 	1049
f 1050 	1049 	1050
f 1051 	1050 	1051
f 1052 	1051 	1052
f 1053 	1052 	1053
f 1054 	1053 	1054
f 1055 	1054 	1055
f 1008 	1055 	1008
f 1007 	1008 	1057
f 1057 	1008 	1056
f 1010 	1007 	1059
f 1059 	1007 	1057
f 1011 	1010 	1060
f 1060 	1010 	1059
f 1012 	1011 	1061
f 1061 	1011 	1060
f 1013 	1012 	1062
f 1062 	1012 	1061
f 1014 	1013 	1063
f 1063 	1013 	1062
f 1015 	1014 	1064
f 1064 	1014 	1063
f 1016 	1015 	1065
f 1065 	1015 	1064
f 1017 	1016 	1066
f 1066 	1016 	1065
f 1018 	1017 	1067
f 1067 	1017 	1066
f 1019 	1018 	1068
f 1068 	1018 	1067
f 1020 	1019 	1069
f 1069 	1019 	1068
f 1021 	1020 	1070
f 1070 	1020 	1069
f 1022 	1021 	1071
f 1071 	1021 	1070
f 1023 	1022 	1072
f 1072 	1022 	1071
f 1024 	1023 	1073
f 1073 	1023 	1072
f 1025 	1024 	1074
f 1074 	1024 	1073
f 1026 	1025 	1075
f 1075 	1025 	1074
f 1027 	1026 	1076
f 1076 	1026 	1075
f 1028 	1027 	1077
f 1077 	1027 	1076
f 1029 	1028 	1078
f 1078 	1028 	1077
f 1030 	1029 	1079
f 1079 	1029 	1078
f 1031 	1030 	1080
f 1080 	1030 	1079
f 1032 	1031 	1081
f 1081 	1031 	1080
f 1033 	1032 	1082
f 1082 	1032 	1081
f 1034 	1033 	1083
f 1083 	1033 	1082
f 1035 	1034 	1084
f 1084 	1034 	1083
f 1036 	1035 	1085
f 1085 	1035 	1084
f 1037 	1036 	1086
f 1086 	1036 	1085
f 1038 	1037 	1087
f 1087 	1037 	1086
f 1039 	1038 	1088
f 1088 	1038 	1087
f 1040 	1039 	1089
f 1089 	1039 	1088
f 1041 	1040 	1090
f 1090 	1040 	1089
f 1042 	1041 	1091
f 1091 	1041 	1090
f 1043 	1042 	1092
f 1092 	1042 	1091
f 1044 	1043 	1093
f 1093 	1043 	1092
f 1045 	1044 	1094
f 1094 	1044 	1093
f 1046 	1045 	1095
f 1095 	1045 	1094
f 1047 	1046 	1096
f 1096 	1046 	1095
f 1048 	1047 	1097
f 1097 	1047 	1096
f 1049 	1048 	1098
f 1098 	1048 	1097
f 1050 	1049 	1099
f 1099 	1049 	1098
f 1051 	1050 	1100
f 1100 	1050 	1099
f 1052 	1051 	1101
f 1101 	1051 	1100
f 1053 	1052 	1102
f 1102 	1052 	1101
f 1054 	1053 	1103
f 1103 	1053 	1102
f 1055 	1054 	1104
f 1104 	1054 	1103
f 1008 	1055 	1056
f 1056 	1055 	1104
f 1057 	1056 	1057
f 1059 	1057 	1059
f 1060 	1059 	1060
f 1061 	1060 	1061
f 1062 	1061 	1062
f 1063 	1062 	1063
f 1064 	1063 	1064
f 1065 	1064 	1065
f 1066 	1065 	1066
f 1067 	1066 	1067
f 1068 	1067 	1068
f 1069 	1068 	1069
f 1070 	1069 	1070
f 1071 	1070 	1071
f 1072 	1071 	1072
f 1073 	1072 	1073
f 1074 	1073 	1074
f 1075 	1074 	1075
f 1076 	1075 	1076
f 1077 	1076 	1077
f 1078 	1077 	1078
f 1079 	1078 	1079
f 1080 	1079 	1080
f 1081 	1080 	1081
f 1082 	1081 	1082
f 1083 	1082 	1083
f 1084 	1083 	1084
f 1085 	1084 	1085
f 1086 	1085 	1086
f 1087 	1086 	1087
f 1088 	1087 	1088
f 1089 	1088 	1089
f 1090 	1089 	1090
f 1091 	1090 	1091
f 1092 	1091 	1092
f 1093 	1092 	1093
f 1094 	1093 	1094
f 1095 	1094 	1095
f 1096 	1095 	1096
f 1097 	1096 	1097
f 1098 	1097 	1098
f 1099 	1098 	1099
f 1100 	1099 	1100
f 1101 	1100 	1101
f 1102 	1101 	1102
f 1103 	1102 	1103
f 1104 	1103 	1104
f 1056 	1104 	1056
# 288 faces

 #end of obj_13

